<?xml version="1.0" encoding="utf-8"?>
<!-- Svg Vector Icons : http://www.onlinewebfonts.com/icon -->
<!DOCTYPE svg PUBLIC "-//W3C//DTD SVG 1.1//EN" "http://www.w3.org/Graphics/SVG/1.1/DTD/svg11.dtd">
<svg version="1.1" xmlns="http://www.w3.org/2000/svg" xmlns:xlink="http://www.w3.org/1999/xlink" x="0px" y="0px" viewBox="0 0 1000 1000" enable-background="new 0 0 1000 1000" xml:space="preserve">
<metadata> Svg Vector Icons : http://www.onlinewebfonts.com/icon </metadata>
<g><g transform="translate(0.000000,511.000000) scale(0.100000,-0.100000)"><path d="M437.3,4978.4c-98.8-31.6-282.5-221.2-312.1-322c-33.6-116.5-33.6-2980.6,0-3097.1c31.6-108.6,215.3-292.3,323.9-323.9c118.5-33.6,8983.3-33.6,9101.8,0c108.6,31.6,292.3,215.3,323.9,323.9c33.6,116.5,33.6,2980.6,0,3097.1c-31.6,108.6-215.3,292.3-323.9,323.9C9438.3,5012,541.9,5012,437.3,4978.4z M9543,4648.5c39.5-39.5,39.5-65.2,39.5-1540.7c0-1769.8,33.6-1580.2-276.5-1580.2h-197.5v395v395H5000H891.6v-395v-395H694c-310.1,0-276.5-189.6-276.5,1580.2c0,1475.5,0,1501.2,39.5,1540.7c39.5,39.5,65.2,39.5,4543,39.5C9477.8,4688,9503.5,4688,9543,4648.5z M8792.4,1764.7v-237H5000H1207.6v237v237H5000h3792.4V1764.7z"/><path d="M891.6,3423.9v-158H5000h4108.4v158v158H5000H891.6V3423.9z"/><path d="M8160.3,2791.8v-158h158h158v158v158h-158h-158V2791.8z"/><path d="M8792.4,2791.8v-158h158h158v158v158h-158h-158V2791.8z"/><path d="M2629.7-176.9c0-1199,0-1191.1-134.3-1323.4c-179.8-175.8-499.7-175.8-679.5,0c-106.7,104.7-134.3,205.4-134.3,493.8c0,284.4,17.8,322,158,322c134.3,0,158-43.5,158-276.5v-197.5h158h158v179.7c0,248.9-25.7,322-158,452.3c-209.4,211.3-422.7,211.3-634.1,0c-144.2-142.2-163.9-213.3-152.1-549.1c7.9-246.9,9.9-260.7,81-403c88.9-181.7,221.2-310.1,404.9-397c116.5-55.3,152.1-63.2,300.2-63.2c148.1,0,183.7,7.9,300.2,63.2c185.7,86.9,316,215.3,406.9,399l73.1,148.1l5.9,1112.1l5.9,1112h-160h-158V-176.9z"/><path d="M3423.8-611.4l5.9-1507.1l73.1-148.1c90.9-183.7,221.2-312.1,406.9-399c116.5-55.3,152.1-63.2,300.2-63.2c148.1,0,183.7,7.9,300.2,63.2c185.7,86.9,316,215.3,406.9,399l73.1,148.1l7.9,333.8c7.9,422.7-5.9,478-154.1,626.1c-211.4,211.4-424.7,211.4-634,0c-132.3-130.4-158-203.4-158-452.3v-179.7h158h158v197.5c0,171.8,5.9,203.4,39.5,237c53.3,53.3,183.7,53.3,237,0c35.5-35.5,39.5-65.2,39.5-363.4c0-371.3-19.8-452.3-132.3-568.9c-173.8-177.8-509.6-177.8-683.4,0c-136.3,140.2-132.3,81-132.3,1714.5V895.6h-158h-160L3423.8-611.4z"/><path d="M7074,869.9c-98.8-31.6-282.5-221.2-312.1-322c-17.8-61.2-23.7-651.8-23.7-2449.2c2-2559.9-4-2441.3,108.6-2585.5c114.6-152.1,209.4-185.7,740.7-258.8c647.9-90.9,1850.8-9.9,2075.9,138.3c88.9,61.2,171.8,163.9,207.4,262.7c35.6,104.7,39.5,4768.1,4,4892.6c-31.6,108.6-215.3,292.3-323.9,323.9C9442.3,903.5,7176.7,901.5,7074,869.9z M9543,540.1c39.5-39.5,39.5-65.2,39.5-1125.9c0-649.9-7.9-1086.4-17.8-1086.4s-124.4-17.8-252.8-39.5c-655.8-108.6-1390.5-104.7-2064.1,11.8l-193.6,33.6v1084.4c0,1056.7,0,1082.4,39.5,1121.9c39.5,39.5,65.2,39.5,1224.6,39.5S9503.5,579.6,9543,540.1z M7488.8-2049.4c254.8-35.5,395-43.4,829.6-43.4c503.7,0,748.6,19.8,1200.9,98.8l63.2,9.9v-1145.6c0-1062.7-2-1147.6-33.6-1187.1c-27.6-33.6-84.9-49.4-282.5-81c-685.4-108.6-1210.8-108.6-1896.2,0c-197.5,31.6-254.8,47.4-280.5,81c-33.6,39.5-35.5,124.5-35.5,1187.1v1145.6l65.2-9.9C7153-2000,7320.9-2025.7,7488.8-2049.4z"/><path d="M7370.3-289.5v-553.1h948.1h948.1v553.1v553h-948.1h-948.1V-289.5z M8950.4-289.5v-237h-632.1h-632.1v237v237h632.1h632.1V-289.5z"/><path d="M7370.3-1316.6v-158h237h237v158v158h-237h-237V-1316.6z"/><path d="M8792.4-1316.6v-158h237h237v158v158h-237h-237V-1316.6z"/><path d="M2945.8-3337.2c0-849.3-4-880.9-134.3-1007.4c-181.7-177.8-507.6-175.8-681.4,2c-96.8,98.8-132.3,209.4-132.3,410.8c0,199.5,29.6,244.9,158,244.9c118.5,0,158-49.4,158-197.5v-118.5h158h158v100.7c0,165.9-37.5,252.9-158,373.3c-209.4,211.3-422.7,211.3-634.1,0c-138.3-136.3-165.9-225.2-152.1-476c9.9-154.1,21.7-197.5,82.9-322c86.9-177.8,219.3-306.2,402.9-393.1c116.5-55.3,152.1-63.2,300.2-63.2c148.1,0,183.7,7.9,300.2,63.2c185.7,86.9,316,215.3,406.9,399l73.1,148.1l5.9,796l5.9,796h-158h-160V-3337.2z"/></g></g>
</svg>