<?xml version="1.0" encoding="utf-8"?>
<!-- Svg Vector Icons : http://www.onlinewebfonts.com/icon -->
<!DOCTYPE svg PUBLIC "-//W3C//DTD SVG 1.1//EN" "http://www.w3.org/Graphics/SVG/1.1/DTD/svg11.dtd">
<svg version="1.1" xmlns="http://www.w3.org/2000/svg" xmlns:xlink="http://www.w3.org/1999/xlink" x="0px" y="0px" viewBox="0 0 1000 1000" enable-background="new 0 0 1000 1000" xml:space="preserve">
<metadata> Svg Vector Icons : http://www.onlinewebfonts.com/icon </metadata>
<g><g transform="translate(0.000000,511.000000) scale(0.100000,-0.100000)"><path d="M287.6,4985.5c-51.4-152.2-140.4-604.9-168-850c-41.5-395.4-19.8-691.9,92.9-1275l73.1-381.5h2117.2h2119.2l11.9-241.2c19.8-405.2,92.9-705.7,262.9-1061.5c235.2-500.2,646.4-937,1144.6-1215.7l166.1-92.9l5.9-567.3l5.9-567.4l55.3-110.7c29.7-61.3,89-152.2,132.5-201.6c104.8-116.6,118.6-162.1,118.6-369.7c0-207.6-13.8-253-122.6-373.6c-128.5-144.3-181.9-278.7-181.9-466.5c0-134.4,7.9-174,57.3-272.8c65.2-132.5,211.5-276.8,336.1-332.1c49.4-21.8,225.4-63.3,391.4-94.9l300.5-53.4l5.9-274.8c5.9-322.2-17.8-419.1-130.5-529.8c-142.3-138.4-33.6-132.5-2156.7-132.5c-2152.7,0-2030.2-7.9-2174.5,148.3c-43.5,45.5-87,118.6-98.8,160.1c-13.8,51.4-21.7,496.2-21.7,1314.6V-1619l85,23.7c231.3,69.2,488.3,280.7,595,492.2c87,172,110.7,302.5,110.7,606.9v278.8l102.8,27.7c83,19.8,126.5,49.4,213.5,136.4c211.5,213.5,211.5,425,0,634.5c-120.6,120.6-207.6,158.1-373.6,158.1h-100.8v316.3v316.3h-158.1h-158.1v-316.3V739.3H2472h-474.4v316.3v316.3h-158.1h-158.1v-316.3V739.3h-100.8c-166,0-253-37.5-373.6-158.1c-211.5-209.5-211.5-421.1,0-634.5c87-87,130.5-116.6,213.5-136.4l102.8-27.7v-278.8c0-304.4,23.7-434.9,110.7-606.9c106.7-211.5,363.7-423,595-492.2l83-23.7l5.9-1279l5.9-1277l73.1-148.3c90.9-183.9,221.4-312.3,407.2-399.3l132.5-63.3h1986.7h1986.7l132.4,63.3c185.8,87,316.3,215.5,407.2,397.3c71.2,148.3,73.2,152.2,81.1,432.9c3.9,156.2,13.8,282.7,23.7,282.7s126.5-19.8,259-43.5c284.6-49.4,432.9-35.6,636.5,59.3c215.5,100.8,357.8,260.9,450.7,510l45.5,116.6l5.9,1624.9l5.9,1623l81.1,75.1c223.4,199.6,425,470.5,575.3,769c371.6,743.3,381.5,1581.4,25.7,2312.9c-377.6,772.9-1067.5,1308.7-1955.1,1518.2l-181.9,41.5l-3603.7,5.9C991.3,5009.3,295.5,5005.3,287.6,4985.5z M3737.1,3744.1v-948.9H2139.8H542.6l-59.3,302.5c-51.4,274.8-57.3,336.1-55.3,705.7c0,338,7.9,438.9,45.5,612.8c23.7,114.6,47.4,223.4,53.4,243.1c9.9,31.6,104.8,33.6,1611.1,33.6h1599.2V3744.1z M7690.8,4639.6c492.2-122.5,881.6-334.1,1205.9-658.3c599-593,828.3-1451,610.8-2287.2c-102.8-399.3-290.6-711.7-624.7-1047.7l-243.1-243.1l-4-1686.2l-5.9-1684.2l-43.5-81c-71.2-132.5-138.4-199.7-266.9-262.9c-87-45.5-148.3-61.3-221.4-61.3c-170,0-1472.7,249.1-1530,290.6c-96.9,71.2-130.5,138.4-138.4,268.8c-5.9,134.4-2,144.3,154.2,340c215.5,266.9,215.5,778.9,0,1047.7c-162.1,203.6-148.3,124.5-154.2,850l-5.9,654.3l-191.8,87c-699.8,320.2-1182.2,917.2-1340.3,1660.5c-37.6,179.9-51.4,642.5-21.7,856l13.8,112.7h-415.1h-415.1v948.9V4695l1735.7-7.9C7473.3,4681.1,7526.7,4679.1,7690.8,4639.6z M3539.4,383.5c25.7-25.7,39.5-65.2,39.5-118.6s-13.8-92.9-39.5-118.6c-37.6-37.5-65.2-39.5-1067.5-39.5c-1002.3,0-1029.9,2-1067.5,39.5c-25.7,25.7-39.5,65.2-39.5,118.6s13.8,92.9,39.5,118.6C1442,421.1,1469.7,423,2472,423C3474.2,423,3501.9,421.1,3539.4,383.5z M3100.6-539.7c-5.9-304.4-9.9-340-53.4-429c-27.7-53.4-81.1-130.5-120.6-170c-126.5-126.5-239.2-168-454.7-168c-158.1,0-203.6,7.9-286.6,49.4c-124.5,61.3-227.3,164.1-288.6,288.6c-43.5,89-47.4,124.5-53.4,429l-7.9,330.1H2472h636.5L3100.6-539.7z"/><path d="M6987,3724.3c-288.6-51.4-525.8-181.9-759.1-415.1c-189.8-189.8-294.6-353.8-369.7-583.2c-45.5-136.4-51.4-191.8-51.4-405.3c0-213.5,5.9-268.8,51.4-405.2c217.5-656.3,883.6-1095.1,1526.1-1002.2c324.2,47.5,618.7,197.7,842.1,431c223.4,233.3,351.9,492.2,395.4,804.6c63.3,427-108.7,881.7-450.7,1199.9c-262.9,245.1-553.5,371.6-889.6,385.5C7174.8,3738.2,7042.4,3734.2,6987,3724.3z M7491.1,3398.2c490.2-116.6,832.2-557.5,832.2-1077.4c0-628.6-478.4-1107-1107-1107c-628.6,0-1107,478.4-1107,1107c0,514,340,958.8,822.4,1075.4C7085.9,3433.7,7334.9,3433.7,7491.1,3398.2z"/><path d="M7139.2,3244c-106.7-53.4-94.9-225.4,19.8-270.8c175.9-73.1,298.5,195.7,124.6,274.8C7222.2,3275.6,7198.5,3275.6,7139.2,3244z"/><path d="M6668.7,2929.6c-106.7-51.4-102.8-215.5,5.9-266.9c130.5-63.2,260.9,59.3,205.6,193.7C6844.7,2941.5,6757.7,2973.1,6668.7,2929.6z"/><path d="M7613.7,2927.7c-106.7-53.4-94.9-225.4,19.8-270.8c176-73.2,298.5,195.7,124.6,274.8C7696.7,2959.3,7672.9,2959.3,7613.7,2927.7z"/><path d="M7143.2,2771.5c-108.7-53.4-98.8-225.3,15.8-272.8c175.9-73.2,298.5,195.7,124.6,274.8C7224.2,2799.2,7200.5,2799.2,7143.2,2771.5z"/><path d="M6348.5,2453.2c-106.7-53.4-94.9-225.4,19.8-270.8c175.9-73.1,298.5,195.7,124.6,274.8C6431.5,2484.9,6407.8,2484.9,6348.5,2453.2z"/><path d="M6826.9,2455.2c-108.7-53.4-98.8-225.4,15.8-272.8c175.9-73.1,298.5,195.7,124.6,274.8C6907.9,2482.9,6884.2,2482.9,6826.9,2455.2z"/><path d="M7455.5,2453.2c-106.7-53.4-94.9-225.4,19.8-270.8c176-73.1,298.5,195.7,124.6,274.8C7538.5,2484.9,7514.8,2484.9,7455.5,2453.2z"/><path d="M7929.9,2453.2c-106.7-53.4-94.9-225.4,19.8-270.8c176-73.1,298.5,195.7,124.6,274.8C8013,2484.9,7989.3,2484.9,7929.9,2453.2z"/><path d="M7139.2,2137c-106.7-53.4-94.9-225.4,19.8-270.8c175.9-73.1,298.5,195.7,124.6,274.8C7222.2,2168.6,7198.5,2168.6,7139.2,2137z"/><path d="M6664.8,1978.8c-106.7-53.4-94.9-225.4,19.8-270.8c175.9-73.1,298.5,195.7,124.6,274.8C6747.8,2010.4,6724.1,2010.4,6664.8,1978.8z"/><path d="M7617.6,1980.8c-106.7-51.4-102.8-215.5,5.9-266.9c130.5-63.2,260.9,59.3,205.6,193.7C7793.6,1992.6,7706.6,2024.3,7617.6,1980.8z"/><path d="M7139.2,1662.5c-106.7-53.4-94.9-225.4,19.8-270.8c175.9-73.1,298.5,195.7,124.6,274.8C7222.2,1694.1,7198.5,1694.1,7139.2,1662.5z"/></g></g>
</svg>