<?xml version="1.0" encoding="utf-8"?>
<!-- Svg Vector Icons : http://www.onlinewebfonts.com/icon -->
<!DOCTYPE svg PUBLIC "-//W3C//DTD SVG 1.1//EN" "http://www.w3.org/Graphics/SVG/1.1/DTD/svg11.dtd">
<svg version="1.1" xmlns="http://www.w3.org/2000/svg" xmlns:xlink="http://www.w3.org/1999/xlink" x="0px" y="0px" viewBox="0 0 1000 1000" enable-background="new 0 0 1000 1000" xml:space="preserve">
<metadata> Svg Vector Icons : http://www.onlinewebfonts.com/icon </metadata>
<g><g transform="translate(0.000000,511.000000) scale(0.100000,-0.100000)"><path d="M2310.9,4621.9l-2-391.3l253-1268.8l253-1270.8h2395.3c2371.6,0,2397.3,0,2436.8-39.5c39.5-39.5,39.5-65.2,39.5-2411.1c0-2345.9,0-2371.6-39.5-2411.1c-35.6-35.6-65.2-39.5-328.1-39.5h-286.6l86.9,112.7c98.8,126.5,136.4,197.6,197.6,359.7c39.5,104.7,41.5,154.1,49.4,970.4c4,583,0,921-15.8,1047.5c-41.5,330-162.1,679.9-326.1,946.7c-49.4,79.1-88.9,158.1-88.9,175.9c0,19.8,25.7,132.4,59.3,251c49.4,187.7,59.3,253,59.3,470.4v251H4998.7H2943.4v-237.2V900.5h-458.5c-644.3,0-875.5-43.5-1251-231.2C633.1,364.9,206.2-235.8,117.2-907.8c-15.8-118.6-19.8-430.8-15.8-948.6l5.9-770.8l53.4-98.8c150.2-282.6,462.5-397.2,717.4-262.8c116.6,61.2,205.5,150.2,268.8,272.7c47.4,87,47.4,98.8,59.3,869.6c7.9,549.4,17.8,804.4,35.6,859.7c87,270.8,292.5,523.7,531.6,648.2C1973-231.9,2111.3-206.2,2471-206.2h308.3l-47.4-164c-90.9-312.3-104.7-480.2-104.7-1330.1c0-488.2,7.9-836,21.7-909.1c29.6-158.1,130.4-369.6,243.1-506l90.9-112.7l-92.9-41.5c-237.2-104.7-304.4-205.5-460.5-672l-118.6-361.7v-245.1v-243.1h3794.5H9900v389.4c0,371.5-11.8,490.1-237.1,2450.6L9423.7,110l239.1,2061.3C9888.2,4131.8,9900,4250.4,9900,4621.9v389.3H6105.5H2310.9V4621.9z M9583.8,4537v-158.1h-395.3h-395.3v-158.1v-158.1h385.4c211.5,0,385.4-5.9,385.4-13.8c0-9.9-102.8-897.2-227.3-1976.3L9111.4,112l235.2-2049.4c179.8-1549.4,237.1-2110.7,237.1-2294.5v-243.1H6105.5H2627.2v77.1c0,100.8,207.5,711.5,262.8,768.8c100.8,108.7-27.7,102.8,2417,102.8c1715.5,0,2286.6,5.9,2347.9,23.7c108.7,31.6,292.5,215.4,324.1,324.1c33.6,118.6,33.6,5351.9,0,5470.4c-31.6,108.7-215.4,292.5-324.1,324.1c-61.3,17.8-642.3,23.7-2397.3,23.7c-1272.7,0-2314.3,2-2314.3,5.9c0,4-61.3,316.2-138.3,695.7c-75.1,379.5-138.3,697.6-138.3,705.5c0,7.9,1308.3,15.8,2905.2,15.8h2905.2v158.1v158.1h-2925h-2925V4537v158.1h3478.3h3478.3V4537z M7647,2284c31.6-31.6,39.5-65.2,39.5-177.9v-138.3l-51.4,19.8c-31.6,11.9-889.3,19.8-2308.4,19.8H3069.8l-29.6,158.1l-31.6,158.1H5309C7581.8,2323.5,7607.5,2323.5,7647,2284z M6737.9,989.5c0-39.5-27.7-181.8-61.3-316.2l-61.3-247H4996.8H3380.1l-21.7,85c-11.9,45.5-37.5,150.2-59.3,233.2c-21.7,81-39.5,185.8-39.5,231.2v83h1739.2h1739.2V989.5z M3046.1,471.7l27.7-114.6l-71.1-118.6l-73.1-118.6L2496.7,108c-395.3-9.9-446.7-15.8-590.9-63.2c-229.3-75.1-393.3-179.8-583-369.6c-189.7-189.7-292.5-351.8-369.6-583c-53.4-158.1-53.4-160.1-63.2-932.8l-11.9-776.7l-53.4-51.4c-41.5-41.5-77.1-55.4-162.1-63.2c-104.8-7.9-112.7-5.9-179.8,61.3l-69.2,69.2v816.2c0,725.3,4,838,37.5,1000c71.1,339.9,223.3,622.5,466.4,865.6c164,166,320.2,270.8,529.6,361.7c272.7,118.6,428.9,140.3,1033.6,140.3l537.6,2L3046.1,471.7z M6818.9-38.2c75.1-138.3,179.9-430.8,203.6-567.2l13.8-75.1h-229.2h-227.3v-158.1v-158.1h239.1h237.2l-5.9-814.2c-5.9-764.8-7.9-822.1-45.4-909.1c-88.9-207.5-233.2-351.8-440.7-440.7c-88.9-37.6-142.3-39.5-1513.9-45.4c-1588.9-5.9-1569.2-7.9-1770.8,130.4c-140.3,94.9-247,239.1-296.5,397.2c-37.5,114.6-39.5,181.8-39.5,903.2v778.7h1660.1h1660.1v158.1v158.1H4623.2c-1549.4,0-1640.3,2-1640.3,35.6c0,98.8,124.5,442.7,229.3,632.4l69.2,122.5l1731.2-4l1733.2-5.9L6818.9-38.2z"/><path d="M3101.5-4000.7v-158.1h237.2h237.2v158.1v158.1h-237.2h-237.2V-4000.7z"/></g></g>
</svg>