<?xml version="1.0" encoding="utf-8"?>
<!-- Svg Vector Icons : http://www.onlinewebfonts.com/icon -->
<!DOCTYPE svg PUBLIC "-//W3C//DTD SVG 1.1//EN" "http://www.w3.org/Graphics/SVG/1.1/DTD/svg11.dtd">
<svg version="1.1" xmlns="http://www.w3.org/2000/svg" xmlns:xlink="http://www.w3.org/1999/xlink" x="0px" y="0px" viewBox="0 0 1000 1000" enable-background="new 0 0 1000 1000" xml:space="preserve">
<metadata> Svg Vector Icons : http://www.onlinewebfonts.com/icon </metadata>
<g><g transform="translate(0.000000,511.000000) scale(0.100000,-0.100000)"><path d="M1048.4,110v-4900H5000h3951.6V110v4900H5000H1048.4V110z M8635.5,4219.7v-474.2H5000H1364.5v474.2v474.2H5000h3635.5V4219.7z M8635.5,1690.6V-48.1h-79h-79v474.2v474.2h-144.2H8189l47.4,142.3c233.1,693.5-63.2,1454.2-717.2,1851.3c-270.7,164-663.8,247-968.1,203.5c-705.4-102.7-1246.7-630.3-1371.2-1335.6c-41.5-227.2-17.8-480.1,65.2-727.1l43.5-134.3H5000h-288.5l43.5,134.3c173.9,517.7,67.2,1065-290.4,1499.6c-331.9,405-871.3,626.3-1369.2,563.1c-739-92.9-1306-659.9-1398.9-1398.9c-27.7-215.4-3.9-444.6,71.1-663.9l43.5-134.3h-144.2h-144.2V426.1V-48.1h-79h-79v1738.7v1738.7H5000h3635.5V1690.6z M3547.8,2767.5c77.1-15.8,213.4-65.2,304.3-110.6c598.7-294.4,845.6-1057.1,543.3-1681.4l-35.6-75.1h-203.5h-205.5l59.3,75.1c83,104.7,160,280.6,185.7,430.7c81,468.3-302.3,974.1-802.2,1061c-578.9,98.8-1165.7-484.1-1066.9-1061c25.7-150.2,102.7-326,185.7-430.7l59.3-75.1h-205.5h-203.5l-45.4,94.8c-77.1,156.1-102.7,260.8-114.6,468.3c-11.9,252.9,23.7,436.7,134.4,659.9C2384,2623.2,2964.9,2890,3547.8,2767.5z M7025.2,2767.5c77.1-15.8,213.4-65.2,304.3-110.6c598.7-294.4,845.6-1057.1,543.4-1681.4l-35.6-75.1h-203.5h-205.5l59.3,75.1c83,104.7,160,280.6,185.7,430.7c81,468.3-302.3,974.1-802.2,1061c-578.9,98.8-1165.7-484.1-1066.9-1061c25.7-150.2,102.8-326,185.7-430.7l59.3-75.1h-205.5h-203.5l-45.5,94.8c-77,156.1-102.7,260.8-114.6,468.3c-11.8,252.9,23.7,436.7,134.4,659.9C5861.4,2623.2,6442.3,2890,7025.2,2767.5z M3547.8,2105.6c122.5-59.3,227.2-164,288.5-288.5c39.5-81,47.4-126.4,47.4-284.5c0-215.4-41.5-328-167.9-454.4c-126.4-126.5-239.1-167.9-454.4-167.9c-158.1,0-203.5,7.9-284.5,47.4c-203.5,100.8-326,284.5-343.8,515.7c-21.7,316.1,126.5,559.2,401.1,657.9C3174.4,2180.6,3415.4,2168.8,3547.8,2105.6z M7025.2,2105.6c122.5-59.3,227.2-164,288.5-288.5c39.5-81,47.4-126.4,47.4-284.5c0-215.4-41.5-328-167.9-454.4c-126.5-126.5-239.1-167.9-454.4-167.9s-328,41.5-454.4,167.9c-148.2,148.2-213.4,407-160,626.3c49.4,197.6,211.4,369.5,405,432.7C6655.7,2178.7,6906.6,2162.9,7025.2,2105.6z M8161.3,268.1V-48.1H7529h-632.2V110v158.1h-158.1h-158.1V110V-48.1h-711.3h-711.3V110v158.1H5000h-158.1V110V-48.1h-711.3h-711.3V110v158.1h-158.1h-158.1V110V-48.1H2471h-632.3v316.1v316.1H5000h3161.3V268.1z M8635.5-522.3v-158.1H5000H1364.5v158.1v158.1H5000h3635.5V-522.3z M8635.5-2735.2v-1738.7H5000H1364.5v1738.7v1738.7H5000h3635.5V-2735.2z"/><path d="M5474.2,4219.7v-158.1h237.1h237.1v158.1v158.1h-237.1h-237.1V4219.7z"/><path d="M6264.5,4219.7v-158.1h237.1h237.1v158.1v158.1h-237.1h-237.1V4219.7z"/><path d="M7054.8,4219.7v-158.1h237.1H7529v158.1v158.1h-237.1h-237.1V4219.7z"/><path d="M7845.2,4219.7v-158.1h237.1h237.1v158.1v158.1h-237.1h-237.1V4219.7z"/></g></g>
</svg>