<?xml version="1.0" encoding="utf-8"?>
<!-- Svg Vector Icons : http://www.onlinewebfonts.com/icon -->
<!DOCTYPE svg PUBLIC "-//W3C//DTD SVG 1.1//EN" "http://www.w3.org/Graphics/SVG/1.1/DTD/svg11.dtd">
<svg version="1.1" xmlns="http://www.w3.org/2000/svg" xmlns:xlink="http://www.w3.org/1999/xlink" x="0px" y="0px" viewBox="0 0 1000 1000" enable-background="new 0 0 1000 1000" xml:space="preserve">
<metadata> Svg Vector Icons : http://www.onlinewebfonts.com/icon </metadata>
<g><g transform="translate(0.000000,511.000000) scale(0.100000,-0.100000)"><path d="M295.2,3711.7c-37.6-21.7-94.9-71.2-128.5-110.7l-59.3-75.1l-5.9-3392.2c-4-3202.4-2-3398.1,29.7-3461.4c19.8-37.5,69.2-94.9,110.7-128.5l77.1-61.3l4657.3-5.9c4511.1-4,4661.3-4,4728.5,31.6c37.6,21.8,94.9,71.2,128.5,110.7l59.3,75.1l5.9,3392.2c4,3202.4,2,3398.1-29.6,3461.4c-19.8,37.5-69.2,94.9-110.7,128.5l-77.1,61.3l-4657.3,5.9C512.7,3747.3,362.4,3747.3,295.2,3711.7z M9586.2,110v-3321H5000H413.8V110v3321H5000h4586.2V110z"/><path d="M2509.2,2934.8c-181.9-23.7-434.9-106.8-636.5-207.6c-96.9-47.4-174-81.1-174-71.2c0,7.9-19.8,39.5-45.5,69.2l-43.5,55.4l-124.5-90.9l-122.6-90.9l47.4-69.2l47.4-71.2l-126.5-126.5C898.1,1893.1,678.7,1276.3,745.9,697.1c13.8-110.7,29.7-219.4,35.6-243.1c7.9-33.6-2-43.5-69.2-63.3L633.3,367l51.4-150.2c39.5-120.6,55.3-146.3,83-136.4c116.6,45.5,126.5,39.5,197.7-102.8c130.5-266.9,361.8-539.7,618.7-727.5c253-187.8,646.4-349.9,913.3-377.6l130.5-13.8v-85v-87H2786h158.1v87v85l130.5,13.8c375.6,37.5,844.1,276.8,1156.4,589.1c140.4,140.4,312.3,375.6,383.5,527.8c61.3,130.5,73.1,136.4,189.8,90.9c27.7-9.9,43.5,15.8,83,136.4l51.4,150.2l-79.1,23.7c-67.2,19.8-77.1,29.7-69.2,63.3c5.9,23.7,21.7,132.5,35.6,245.1c67.2,579.2-160.1,1207.8-595,1642.7l-116.6,116.6l47.4,71.2l47.4,69.2l-122.6,90.9l-124.5,90.9l-43.5-55.4c-25.7-29.6-45.5-61.3-45.5-71.2c0-7.9-73.1,21.7-162.1,67.2C3315.8,2921,2928.3,2988.2,2509.2,2934.8z M3240.6,2585c152.2-41.5,434.9-158.1,434.9-179.9c0-7.9-41.5-71.2-94.9-144.3l-92.9-130.5l-69.2,37.6c-37.6,19.8-140.4,61.3-227.3,89c-138.4,47.4-189.8,53.4-405.2,53.4s-266.9-5.9-405.2-53.4c-87-27.7-189.8-69.2-227.3-89l-69.2-37.6l-92.9,130.5c-53.4,73.1-94.9,136.4-94.9,144.3c0,11.9,154.2,85,286.6,136.4c33.6,13.8,134.4,41.5,227.3,61.3C2631.8,2652.2,3023.2,2644.3,3240.6,2585z M1744.2,2069l90.9-126.5l-102.8-112.7c-134.4-144.3-239.2-326.2-304.4-523.9c-47.4-140.3-53.4-189.8-53.4-430.9V604.2l-134.4-43.5c-73.1-23.7-138.4-37.5-146.3-29.7c-25.7,25.7-45.5,185.8-45.5,369.7c-2,338,104.8,705.7,278.7,968.6c96.9,146.3,294.5,361.7,312.3,342C1647.3,2203.4,1694.8,2138.2,1744.2,2069z M4074.9,2086.8c296.5-338,450.7-741.3,448.7-1176.2c0-177.9-21.7-355.8-43.5-377.6c-11.9-11.9-217.4,41.5-270.8,71.2c-27.7,13.8-27.7,37.6-11.9,158.1c49.4,355.8-92.9,778.9-357.8,1067.5l-102.8,112.7l92.9,130.5c51.4,73.1,102.8,132.5,116.6,132.5C3958.2,2205.4,4017.5,2152,4074.9,2086.8z M3011.3,1986c61.3-9.9,154.2-37.6,201.6-59.3l90.9-37.6l-41.5-65.2l-41.5-67.2l128.5-90.9l126.5-90.9l35.6,57.3c17.8,33.6,43.5,59.3,55.3,59.3c35.6,0,164.1-181.9,225.4-318.3c69.2-154.2,100.8-310.4,100.8-506.1c0-154.2-5.9-164.1-106.7-126.5c-47.4,19.8-49.4,15.8-89-116.6c-53.4-172-53.4-172,17.8-187.8c75.1-15.8,75.1-37.5,0-156.2c-134.4-211.5-397.3-395.4-650.4-454.7l-120.6-27.7v77.1v77.1H2786h-158.1v-77.1v-77.1l-120.6,27.7c-253,59.3-515.9,243.1-650.4,454.7c-75.1,118.6-75.1,140.3,0,156.2c71.2,15.8,71.2,15.8,17.8,187.8c-39.5,132.4-41.5,136.4-89,116.6C1684.9,703,1679,711,1679,877c0,282.7,75.1,510,233.3,721.5c39.5,51.4,81.1,92.9,92.9,92.9c13.8,0,35.6-21.7,49.4-49.4c13.8-27.7,35.6-49.4,45.5-49.4s69.2,37.6,134.4,81.1l116.6,83l-41.5,65.2l-39.5,65.2l63.3,31.6C2481.6,1995.9,2789.9,2027.5,3011.3,1986z M1570.3,185.1c209.5-342,579.2-604.9,944.9-674.1l112.7-21.7v-164.1v-164.1l-83,11.9c-446.7,69.2-848,290.6-1109,614.8C1333-83.7,1184.8,159.4,1184.8,202.9c0,17.8,223.4,96.9,288.6,102.8C1485.3,307.7,1528.7,252.3,1570.3,185.1z M4240.9,264.2c81-21.7,146.3-49.4,146.3-59.3c0-29.7-81.1-177.9-164.1-302.5c-177.9-262.9-484.3-506-780.8-618.7c-136.4-53.4-219.4-75.1-432.9-110.7l-65.2-9.9v164.1v166l92.9,13.8c351.9,51.4,755.1,336.1,964.7,678c41.5,67.2,79.1,122.6,83,122.6C4090.7,307.7,4159.9,287.9,4240.9,264.2z"/><path d="M2392.6,1383.1c-23.7-29.7-41.5-73.1-41.5-96.9s17.8-67.2,41.5-96.9c92.9-116.6,294.5-29.6,266.9,116.6C2633.8,1434.5,2469.7,1481.9,2392.6,1383.1z"/><path d="M2954,1385c-96.9-96.9-31.6-247.1,108.7-247.1c59.3,0,85,11.9,116.6,51.4C3301.9,1345.5,3094.4,1525.4,2954,1385z"/><path d="M2222.6,861.2c-53.4-59.3-49.4-174,7.9-219.4c69.2-55.3,168-49.4,217.5,13.8c85,106.7,19.8,245.1-114.7,245.1C2281.9,900.7,2246.3,886.9,2222.6,861.2z"/><path d="M3126,855.3c-55.4-57.3-55.4-132.5-2-199.6c49.4-63.3,148.3-69.2,217.4-13.8c57.3,45.5,61.3,160.1,7.9,219.4C3298,918.5,3181.3,914.6,3126,855.3z"/><path d="M2712.8,560.7c-106.7-51.4-102.8-215.5,5.9-266.9c130.5-63.2,260.9,59.3,205.6,193.7C2888.8,572.6,2801.8,604.2,2712.8,560.7z"/><path d="M6907.6,2928.9c-205.6-33.6-332.1-73.1-569.3-185.8l-195.7-90.9l-51.4,63.2l-53.4,65.2l-124.5-90.9l-122.6-90.9l47.4-69.2l47.5-71.2L5769,2341.8c-434.9-434.9-660.2-1057.6-595-1642.7c13.8-112.7,27.7-221.4,35.6-245.1c7.9-33.6-2-43.5-67.2-63.3l-79.1-23.7l45.5-144.3c29.6-87,57.3-140.3,73.1-138.4c13.8,0,53.4,7.9,85,15.8c57.3,11.9,61.3,7.9,126.5-122.6c130.5-266.9,361.8-539.7,618.8-727.5c253-187.8,646.4-349.9,913.3-377.6l130.5-13.8v-85v-87H7214h158.1v87v85l130.5,13.8c375.6,37.5,844.1,276.8,1156.4,589.1c140.4,140.4,312.3,375.6,383.5,527.8c61.3,130.5,73.1,136.4,189.8,90.9c27.7-9.9,43.5,15.8,83,136.4l51.4,150.2l-79.1,23.7c-67.2,19.8-77.1,29.7-69.2,63.3c5.9,23.7,21.7,132.5,35.6,245.1c67.2,579.2-160.1,1207.8-595,1642.7l-116.6,116.6l47.4,71.2l47.5,69.2l-122.6,90.9l-124.5,90.9l-43.5-55.4c-25.7-29.6-45.5-61.3-45.5-71.2c0-7.9-77.1,25.7-172,73.1C7726,2928.9,7330.7,2994.2,6907.6,2928.9z M7668.7,2585c152.2-41.5,434.9-158.1,434.9-179.9c0-7.9-41.5-71.2-94.9-144.3l-92.9-130.5l-73.1,37.6c-39.5,19.8-140.3,61.3-227.3,90.9c-136.4,47.5-183.8,53.4-401.3,53.4c-215.5-2-266.9-7.9-405.2-55.3c-87-27.7-189.8-69.2-227.3-89l-69.2-37.6l-92.9,130.5c-53.4,73.1-94.9,136.4-94.9,144.3c0,11.9,154.2,85,286.6,136.4c33.6,13.8,134.4,41.5,227.3,61.3C7059.8,2652.2,7451.2,2644.3,7668.7,2585z M6170.3,2073l92.9-130.5l-102.8-112.7c-134.4-144.3-239.2-326.2-304.4-523.9c-47.4-140.3-53.4-189.8-53.4-430.9V602.2l-134.4-39.5c-75.1-23.7-142.3-37.6-148.3-31.6c-23.7,23.7-43.5,187.8-45.5,361.8c0,345.9,96.9,689.9,274.8,960.7c106.7,164.1,270.8,351.9,304.4,351.9C6067.5,2205.4,6118.9,2146.1,6170.3,2073z M8463.3,2132.3c359.8-379.5,531.7-881.6,482.3-1411.4c-19.8-215.5-21.7-215.5-193.7-156.2l-144.3,49.4l9.9,69.2c5.9,37.6,7.9,158.1,7.9,266.9c-2,164.1-11.9,227.3-61.3,371.6c-73.1,209.6-160.1,359.8-296.5,508l-102.8,112.7l92.9,130.5c51.4,73.1,102.8,132.5,112.7,132.5C8382.3,2205.4,8423.8,2171.8,8463.3,2132.3z M7486.8,1978.1c69.2-15.8,150.2-43.5,183.8-61.3l59.3-29.7l-39.5-65.2l-41.5-65.2l116.6-83c65.2-43.5,124.5-81.1,134.4-81.1s31.6,21.8,45.5,49.4c13.8,27.7,35.6,49.4,49.4,49.4c11.9,0,53.4-41.5,92.9-92.9C8247.9,1387,8321,1163.6,8321,886.9c0-175.9-5.9-183.8-106.7-146.3c-47.4,19.8-49.4,15.8-89-116.6c-53.3-172-53.3-172,17.8-187.8c75.1-15.8,75.1-37.5,0-156.2c-134.4-211.5-397.3-395.4-650.4-454.7l-120.6-27.7v77.1v77.1H7214h-158.1v-77.1v-77.1l-120.6,27.7c-253,59.3-516,243.1-650.4,454.7c-75.1,118.6-75.1,140.3,0,156.2c71.2,15.8,71.2,19.8,15.8,189.8c-39.5,126.5-45.5,132.4-89,114.6C6112.9,703,6107,711,6107,886.9c0,276.7,73.1,500.1,233.3,711.6c39.5,51.4,81.1,92.9,92.9,92.9c13.8,0,35.6-21.7,49.4-49.4c13.8-27.7,35.6-49.4,45.5-49.4c9.9,0,69.2,37.6,134.4,81.1l116.6,83l-41.5,65.2l-39.5,65.2l59.3,31.6C6923.4,2003.8,7261.5,2031.5,7486.8,1978.1z M6014.1,161.4c106.8-166.1,330.1-387.5,494.2-484.3c128.5-75.1,413.2-179.9,494.2-179.9h53.4v-166v-168l-73.1,9.9c-458.6,65.2-883.6,304.4-1144.6,648.4c-102.8,134.4-225.3,344-225.3,381.5c0,17.8,225.3,96.9,288.6,102.8C5913.3,307.7,5962.7,242.5,6014.1,161.4z M8668.9,264.2c81.1-21.7,146.3-49.4,146.3-59.3c0-29.7-81-177.9-164.1-302.5c-177.9-262.9-484.3-506-780.8-618.7c-136.4-53.4-219.4-75.1-432.9-110.7l-65.2-9.9v164.1v166l92.9,13.8c351.9,51.4,755.1,336.1,964.7,678c41.5,67.2,79.1,122.6,83,122.6C8518.7,307.7,8587.9,287.9,8668.9,264.2z"/><path d="M6820.6,1383.1c-23.7-29.7-41.5-73.1-41.5-96.9s17.8-67.2,41.5-96.9c92.9-116.6,294.6-29.6,266.9,116.6C7061.8,1434.5,6897.7,1481.9,6820.6,1383.1z"/><path d="M7382,1385c-96.9-96.9-31.6-247.1,108.7-247.1c59.3,0,85,11.9,116.6,51.4C7730,1345.5,7522.4,1525.4,7382,1385z"/><path d="M6650.6,861.2c-53.4-59.3-49.4-174,7.9-219.4c69.2-55.3,168-49.4,217.4,13.8c85,106.7,19.8,245.1-114.7,245.1C6709.9,900.7,6674.4,886.9,6650.6,861.2z"/><path d="M7554,855.3c-55.3-57.3-55.3-132.5-2-199.6c49.4-63.3,148.3-69.2,217.4-13.8c57.3,45.5,61.3,160.1,7.9,219.4C7726,918.5,7609.4,914.6,7554,855.3z"/><path d="M7136.9,558.7c-106.7-53.4-94.9-225.4,19.8-270.8c175.9-73.1,298.5,195.7,124.6,274.8C7219.9,590.4,7196.2,590.4,7136.9,558.7z"/><path d="M6526.1-1516.9l-77.1-124.5l-150.2,7.9c-128.5,7.9-166.1,0-259-41.5c-146.3-67.2-274.8-191.8-347.9-336.1c-116.6-235.2-59.3-512,146.3-701.8c148.3-136.4,235.2-172,427-172c138.4,0,183.8,7.9,253,45.5c213.5,112.7,357.8,316.3,373.6,525.8c11.9,152.2-15.8,257-102.8,387.4c-37.6,57.3-69.2,108.7-69.2,114.6c0,7.9,31.6,65.3,73.1,130.5l71.2,116.6l-51.4,41.5c-29.6,23.7-87,61.3-130.5,85l-77.1,45.5L6526.1-1516.9z M6245.4-1955.8c0-5.9-59.3-104.8-132.4-221.4c-106.8-170-134.4-203.6-146.3-172c-31.6,81-3.9,229.3,57.3,304.4C6063.5-1997.3,6245.4-1924.1,6245.4-1955.8z M6571.6-2258.2c-2-126.5-43.5-217.4-126.5-266.9c-57.3-33.6-199.6-65.2-199.6-43.5c0,7.9,63.3,116.6,140.4,241.2C6543.9-2076.3,6571.6-2066.4,6571.6-2258.2z"/><path d="M3576.7-1556.4c0-81-4-87-89-128.5c-132.5-63.3-257-189.8-326.2-326.2c-116.6-235.2-59.3-512,146.3-701.8c148.3-136.4,235.2-172,427-172c138.4,0,183.8,7.9,253,45.5c124.5,65.2,245.1,183.9,312.3,304.4c51.4,92.9,57.3,124.5,57.3,272.8c0,136.4-7.9,183.8-45.5,253c-67.2,128.5-187.8,249.1-310.4,312.4c-104.8,55.3-108.7,59.3-108.7,142.3v83h-158.1h-158.1V-1556.4z M3576.7-2262.2c0-266.9-2-276.7-37.6-253c-134.4,83-152.2,361.8-31.6,482.4c25.7,25.7,53.4,47.4,59.3,47.4C3572.7-1985.4,3576.7-2109.9,3576.7-2262.2z M4003.7-2092.1c75.1-124.6,33.6-355.8-73.1-423c-35.6-23.7-37.6-13.8-37.6,253s2,276.8,37.6,253C3950.3-2021,3983.9-2058.6,4003.7-2092.1z"/></g></g>
</svg>