<?xml version="1.0" encoding="utf-8"?>
<svg viewBox="0 0 500 400" xmlns="http://www.w3.org/2000/svg">
  <title>unlock</title>
  <path d="M 505.61 398.7 C 481.633 395.254 470.497 392.285 433.945 389.789 L 443.015 375.891 C 439.957 375.035 426.522 382.959 426.522 382.959 L 438.428 342.55 C 423.05 343.953 415.225 385.232 415.225 385.232 L 398.046 371.189 L 406.362 386.928 C 336.16 380.067 275.531 377.37 224.535 377.059 L 232.298 365.163 C 229.24 364.308 215.806 372.232 215.806 372.232 L 227.712 331.823 C 212.333 333.226 204.508 374.504 204.508 374.504 L 187.329 360.461 L 196.137 377.133 C 153.385 377.624 118.52 379.784 91.611 382.304 C 99.463 363.753 126.133 346.195 126.133 346.195 C 105.767 350.908 95.083 358.908 89.5 366.385 C 89.073 343.436 91.944 300.904 113.275 253.896 C 113.275 253.896 71.169 326.335 76.532 375.107 L 77.173 383.766 C 41.486 387.661 23.544 391.797 23.544 391.797 L 505.61 398.7 Z" fill="#3f3d56" style=""/>
  <path d="M 425.46 82.475 L 425.46 375.199 C 425.453 382.46 419.236 388.342 411.569 388.345 L 286.08 388.345 C 278.406 388.357 272.181 382.466 272.189 375.199 L 272.189 82.475 C 272.188 75.21 278.408 69.319 286.08 69.32 L 304.859 69.32 L 304.859 71.601 C 304.858 77.583 309.978 82.433 316.295 82.435 L 380.119 82.435 C 382.561 82.439 384.939 81.699 386.901 80.321 C 387.297 80.048 387.673 79.749 388.026 79.427 C 390.283 77.385 391.559 74.557 391.555 71.601 L 391.555 69.32 L 411.569 69.32 C 419.242 69.318 425.463 75.209 425.46 82.475 Z" fill="#3f3d56" style=""/>
  <circle cx="289.42646" cy="108" r="7" fill="#f2f2f2" transform="matrix(0.476872, 0, 0, 0.451595, 169.12796, 69.321098)" style=""/>
  <path d="M 388.026 79.427 C 387.673 79.749 387.297 80.048 386.901 80.321 C 395.166 94.096 409.154 103.956 425.46 107.503 L 425.46 106.094 C 409.595 102.549 396.021 92.879 388.026 79.427 Z" fill="#f1dcea" style=""/>
  <path d="M 359.504 82.435 L 357.94 82.435 C 369.24 109.625 394.959 129.071 425.46 133.487 L 425.46 132.088 C 395.762 127.72 370.695 108.849 359.504 82.435 Z" fill="#f1dcea" style=""/>
  <path d="M 330.692 82.435 L 329.185 82.435 C 341.789 123.864 379.819 154.703 425.46 159.711 L 425.46 158.334 C 380.611 153.348 343.233 123.096 330.692 82.435 Z" fill="#f1dcea" style=""/>
  <polygon points="296.18 141.495 295.311 141.495 295.311 140.672 295.142 140.672 295.142 141.495 294.272 141.495 294.272 141.656 295.142 141.656 295.142 142.478 295.311 142.478 295.311 141.656 296.18 141.656 296.18 141.495" fill="#f2f2f2" style=""/>
  <polygon points="354.835 100.4 353.967 100.4 353.967 99.577 353.797 99.577 353.797 100.4 352.928 100.4 352.928 100.56 353.797 100.56 353.797 101.384 353.967 101.384 353.967 100.56 354.835 100.56 354.835 100.4" fill="#f2f2f2" style=""/>
  <polygon points="304.764 174.01 303.895 174.01 303.895 173.187 303.726 173.187 303.726 174.01 302.856 174.01 302.856 174.17 303.726 174.17 303.726 174.993 303.895 174.993 303.895 174.17 304.764 174.17 304.764 174.01" fill="#f2f2f2" style=""/>
  <polygon points="344.821 150.075 343.952 150.075 343.952 149.253 343.783 149.253 343.783 150.075 342.913 150.075 342.913 150.236 343.783 150.236 343.783 151.058 343.952 151.058 343.952 150.236 344.821 150.236 344.821 150.075" fill="#f2f2f2" style=""/>
  <polygon points="402.046 164.978 401.177 164.978 401.177 164.155 401.008 164.155 401.008 164.978 400.138 164.978 400.138 165.139 401.008 165.139 401.008 165.961 401.177 165.961 401.177 165.139 402.046 165.139 402.046 164.978" fill="#f2f2f2" style=""/>
  <circle cx="467.42646" cy="125" r="4" fill="#ff6584" transform="matrix(0.476872, 0, 0, 0.451595, 169.12796, 69.321098)" style=""/>
  <path d="M 323.696 168.129 L 322.613 168.287 C 322.952 170.337 323.219 172.433 323.414 174.506 L 324.506 174.415 C 324.311 172.315 324.039 170.202 323.696 168.129 Z" fill="#e6e6e6" style=""/>
  <path d="M 320.734 155.783 L 319.685 156.085 C 320.32 158.072 320.887 160.109 321.369 162.137 L 322.442 161.906 C 321.951 159.856 321.373 157.796 320.734 155.783 Z" fill="#e6e6e6" style=""/>
  <path d="M 316.009 143.942 L 315.012 144.375 C 315.927 146.267 316.786 148.209 317.563 150.151 L 318.588 149.785 C 317.802 147.821 316.938 145.852 316.009 143.942 Z" fill="#e6e6e6" style=""/>
  <path d="M 309.619 132.842 L 308.693 133.397 C 309.872 135.149 311.001 136.965 312.051 138.784 L 313.014 138.288 C 311.955 136.445 310.811 134.612 309.619 132.842 Z" fill="#e6e6e6" style=""/>
  <path d="M 301.674 122.667 L 300.839 123.34 C 302.261 124.921 303.643 126.573 304.95 128.245 L 305.828 127.626 C 304.511 125.937 303.114 124.266 301.674 122.667 Z" fill="#e6e6e6" style=""/>
  <path d="M 292.337 113.608 L 291.607 114.38 C 293.248 115.766 294.854 117.225 296.385 118.711 L 297.172 117.984 C 295.622 116.481 293.996 115.008 292.337 113.608 Z" fill="#e6e6e6" style=""/>
  <path d="M 281.788 105.832 L 281.173 106.69 C 282.995 107.85 284.798 109.088 286.528 110.365 L 287.206 109.548 C 285.451 108.257 283.629 107.006 281.788 105.832 Z" fill="#e6e6e6" style=""/>
  <path d="M 272.189 100.431 L 272.189 101.605 C 273.329 102.169 274.459 102.761 275.565 103.366 L 276.113 102.467 C 274.826 101.763 273.518 101.084 272.189 100.431 Z" fill="#e6e6e6" style=""/>
  <path d="M 323.448 265.675 C 323.626 264.665 323.789 263.634 323.932 262.61 L 325.019 262.747 C 324.874 263.782 324.709 264.824 324.53 265.845 Z" fill="#e6e6e6" style=""/>
  <path d="M 320.392 277.858 L 321.44 278.167 C 322.097 276.16 322.692 274.105 323.207 272.056 L 322.14 271.817 C 321.629 273.844 321.045 275.873 320.392 277.858 Z" fill="#e6e6e6" style=""/>
  <path d="M 315.603 289.524 L 316.598 289.966 C 317.544 288.065 318.43 286.107 319.233 284.147 L 318.209 283.769 C 317.416 285.708 316.54 287.645 315.603 289.524 Z" fill="#e6e6e6" style=""/>
  <path d="M 309.16 300.468 L 310.08 301.033 C 311.292 299.272 312.456 297.446 313.539 295.609 L 312.583 295.102 C 311.514 296.918 310.36 298.722 309.16 300.468 Z" fill="#e6e6e6" style=""/>
  <path d="M 301.188 310.465 L 302.019 311.147 C 303.478 309.554 304.893 307.896 306.233 306.22 L 305.355 305.598 C 304.033 307.255 302.633 308.892 301.188 310.465 Z" fill="#e6e6e6" style=""/>
  <path d="M 291.853 319.337 L 292.576 320.118 C 294.252 318.732 295.892 317.27 297.459 315.786 L 296.684 315.05 C 295.135 316.52 293.509 317.961 291.853 319.337 Z" fill="#e6e6e6" style=""/>
  <path d="M 281.337 326.92 L 281.943 327.788 C 283.794 326.63 285.633 325.397 287.397 324.125 L 286.734 323.296 C 284.987 324.557 283.171 325.776 281.337 326.92 Z" fill="#e6e6e6" style=""/>
  <path d="M 276.237 331.087 C 274.912 331.796 273.558 332.482 272.189 333.133 L 272.189 331.968 C 273.372 331.398 274.544 330.798 275.694 330.188 Z" fill="#e6e6e6" style=""/>
  <path d="M 323.77 180.912 L 324.866 180.893 C 324.886 181.941 324.887 182.995 324.871 184.025 L 323.774 184.009 C 323.791 182.99 323.789 181.948 323.77 180.912 Z" fill="#e6e6e6" style=""/>
  <path d="M 277.005 205.536 L 389.17 205.536 C 406.553 205.536 420.644 218.88 420.644 235.34 L 420.644 239.286 C 420.644 239.286 420.644 239.286 420.644 239.286 L 308.479 239.286 C 291.097 239.286 277.005 225.942 277.005 209.48 L 277.005 205.536 C 277.005 205.536 277.005 205.536 277.005 205.536 Z" fill="#fff" style=""/>
  <path d="M 351.445 387.929 C 351.336 387.76 348.755 383.68 347.86 375.207 C 347.04 367.434 347.568 354.332 354.743 336.055 C 368.336 301.431 351.61 273.494 351.439 273.216 L 352.265 272.762 C 352.308 272.833 356.624 279.956 359.174 291.298 C 362.543 306.335 361.316 321.97 355.637 336.37 C 342.067 370.935 352.156 387.298 352.259 387.459 Z" fill="#f2f2f2" style=""/>
  <circle cx="371.1697" cy="434" r="13" fill="#f1dcea" transform="matrix(0.476872, 0, 0, 0.451595, 169.12796, 69.321098)" style=""/>
  <circle cx="412.1697" cy="482" r="13" fill="#f2f2f2" transform="matrix(0.476872, 0, 0, 0.451595, 169.12796, 69.321098)" style=""/>
  <circle cx="384.1697" cy="514" r="13" fill="#f1dcea" transform="matrix(0.476872, 0, 0, 0.451595, 169.12796, 69.321098)" style=""/>
  <circle cx="418.1697" cy="541" r="13" fill="#f1dcea" transform="matrix(0.476872, 0, 0, 0.451595, 169.12796, 69.321098)" style=""/>
  <circle cx="374.1697" cy="583" r="13" fill="#f2f2f2" transform="matrix(0.476872, 0, 0, 0.451595, 169.12796, 69.321098)" style=""/>
  <path d="M 355.19 388.146 C 355.19 388.146 348.991 373.695 367.589 362.856 Z" fill="#f2f2f2" style=""/>
  <path d="M 347.566 387.883 C 347.566 387.883 344.744 372.516 322.908 372.648 Z" fill="#f2f2f2" style=""/>
  <circle cx="322.42646" cy="339" r="80" fill="#f1dcea" opacity="0.2" transform="matrix(0.476872, 0, 0, 0.451595, 169.12796, 69.321098)" style=""/>
  <circle cx="322.42646" cy="339" r="56.33803" fill="#f1dcea" opacity="0.2" transform="matrix(0.476872, 0, 0, 0.451595, 169.12796, 69.321098)" style=""/>
  <circle cx="322.42646" cy="339" r="37.1831" fill="#f1dcea" transform="matrix(0.476872, 0, 0, 0.451595, 169.12796, 69.321098)" style=""/>
  <path d="M 326.109 218.789 C 326.11 216.439 323.423 214.969 321.274 216.143 C 319.318 217.212 319.098 219.804 320.849 221.154 L 319.661 229.025 L 326.109 229.025 L 324.922 221.154 C 325.673 220.576 326.11 219.706 326.109 218.789 Z" fill="#fff" style=""/>
  <path d="M 232.157 204.904 C 242.669 212.314 257.71 206.171 259.231 193.844 C 260.752 181.518 247.612 172.255 235.579 177.171 C 226.835 180.742 222.886 190.414 226.817 198.628 L 182.281 233.744 L 176.35 227.079 L 173.686 228.767 L 170.722 225.434 L 173.158 223.49 L 170.192 220.158 L 166.403 223.182 L 168.227 225.232 L 164.167 228.472 L 162.343 226.421 L 156.387 231.173 L 159.124 234.25 L 161.29 232.522 L 164.255 235.853 L 161.547 238.014 L 167.021 244.165 L 160.525 249.349 L 167.139 256.783 Z M 243.276 181.349 C 251.915 182.047 256.516 191.341 251.557 198.076 C 246.599 204.811 235.801 203.938 232.12 196.503 C 231.281 194.808 230.927 192.932 231.095 191.067 C 231.626 185.199 237.08 180.847 243.276 181.349 Z" fill="#f1dcea" style="" transform="matrix(-1, 0, 0, -1, 415.738617, 432.610901)"/>
  <circle cx="847.674" cy="-50.747" r="17.81" fill="#f1dcea"/>
  <circle cx="641.949" cy="-221.156" r="26.246" fill="#f1dcea"/>
  <polygon points="124.111 377.561 134.245 377.561 139.067 338.47 124.11 338.47 124.111 377.561" fill="#ffb8b8" style=""/>
  <path d="M 121.94 374.664 L 153.79 374.664 C 153.79 374.664 153.79 374.664 153.79 374.664 L 153.79 386.97 C 153.79 386.97 153.79 386.97 153.79 386.97 L 134.245 386.97 C 127.449 386.97 121.94 381.461 121.94 374.664 L 121.94 374.664 C 121.94 374.664 121.94 374.664 121.94 374.664 Z" fill="#2f2e41" style="" transform="matrix(-1, 0.000046, -0.000046, -1, 275.747513, 761.62766)"/>
  <polygon points="70.192 375.611 80.238 376.951 90.184 338.841 75.358 336.865 70.192 375.611" fill="#ffb8b8" style=""/>
  <path d="M 67.47 374.506 L 99.321 374.506 C 99.321 374.506 99.321 374.506 99.321 374.506 L 99.321 386.812 C 99.321 386.812 99.321 386.812 99.321 386.812 L 79.776 386.812 C 72.979 386.812 67.47 381.303 67.47 374.506 L 67.47 374.506 C 67.47 374.506 67.47 374.506 67.47 374.506 Z" fill="#2f2e41" style="" transform="matrix(-0.991228, -0.132161, 0.132161, -0.991228, 115.751182, 769.000617)"/>
  <polygon points="84.589 216.117 141.627 218.597 139.147 363.258 124.267 361.605 112.695 263.235 85.416 368.218 70.536 365.738 84.589 216.117" fill="#2f2e41" style=""/>
  <path d="M 122.614 130.147 L 102.775 126.094 L 90.376 216.944 C 90.376 216.944 126.747 240.916 138.32 216.117 Z" fill="#f1dcea" style=""/>
  <circle cx="113.961" cy="99.174" r="20.303" fill="#ffb8b8" style=""/>
  <path d="M 102.775 125.188 L 73.843 134.28 C 73.843 134.28 87.896 204.544 64.75 240.916 C 64.75 240.916 93.682 271.501 106.082 202.891 C 106.082 202.891 116.001 147.507 102.775 125.188 Z" fill="#2f2e41" style=""/>
  <path d="M 122.614 130.147 L 144.107 143.373 C 144.107 143.373 155.679 240.089 144.107 249.182 C 132.534 258.275 122.614 130.147 122.614 130.147 Z" fill="#2f2e41" style=""/>
  <path d="M 140.792 257.554 C 137.041 253.988 137.425 247.899 141.593 244.833 L 132.855 216.615 L 147.596 220.897 L 153.633 247.036 C 157.095 252.459 153.388 259.596 146.961 259.882 C 144.673 259.984 142.442 259.142 140.792 257.554 Z" fill="#ffb8b8" style=""/>
  <path d="M 78.791 255.047 C 74.614 251.991 74.215 245.903 77.956 242.328 L 65.678 215.461 L 80.846 217.821 L 90.18 242.973 C 94.308 247.908 91.544 255.46 85.207 256.567 C 82.951 256.961 80.631 256.411 78.791 255.047 Z" fill="#ffb8b8" style=""/>
  <polygon points="81.283 135.107 73.843 134.28 54.83 196.278 73.843 239.263 88.722 230.17 72.19 194.625 85.416 156.6 81.283 135.107" fill="#2f2e41" style=""/>
  <polygon points="127.723 136.893 131.857 137.719 151.696 234.435 138.47 238.568 122.764 181.531 127.723 136.893" fill="#2f2e41" style=""/>
  <path d="M 100.01 107.512 C 100.566 103.453 103.218 99.987 106.99 98.388 C 110.897 96.785 115.307 97.462 119.519 97.769 C 123.732 98.076 128.422 97.809 131.462 94.877 C 134.239 92.198 134.864 87.753 133.522 84.135 C 132.182 80.516 129.145 77.707 125.695 75.979 C 122.179 74.367 118.412 73.371 114.559 73.036 C 108.929 72.356 103.148 72.269 97.661 73.701 C 92.173 75.132 93.588 78.201 90.372 82.872 C 87.157 87.544 86.193 93.908 88.645 99.021 C 90.285 102.444 93.225 105.033 96.088 107.524" fill="#2f2e41" style=""/>
  <circle cx="745.492" cy="0.288" r="14.722" fill="#f1dcea" style=""/>
  <circle cx="575.433" cy="-140.578" r="21.696" fill="#f1dcea" style=""/>
  <polygon points="124.111 377.561 134.245 377.561 139.067 338.47 124.11 338.47 124.111 377.561" fill="#ffb8b8" style=""/>
  <path d="M 121.94 374.664 L 153.79 374.664 C 153.79 374.664 153.79 374.664 153.79 374.664 L 153.79 386.97 C 153.79 386.97 153.79 386.97 153.79 386.97 L 134.245 386.97 C 127.449 386.97 121.94 381.461 121.94 374.664 L 121.94 374.664 C 121.94 374.664 121.94 374.664 121.94 374.664 Z" fill="#2f2e41" style="" transform="matrix(-1, 0.000046, -0.000046, -1, 275.747513, 761.62766)"/>
  <polygon points="70.192 375.611 80.238 376.951 90.184 338.841 75.358 336.865 70.192 375.611" fill="#ffb8b8" style=""/>
  <path d="M 67.47 374.506 L 99.321 374.506 C 99.321 374.506 99.321 374.506 99.321 374.506 L 99.321 386.812 C 99.321 386.812 99.321 386.812 99.321 386.812 L 79.776 386.812 C 72.979 386.812 67.47 381.303 67.47 374.506 L 67.47 374.506 C 67.47 374.506 67.47 374.506 67.47 374.506 Z" fill="#2f2e41" style="" transform="matrix(-0.991228, -0.132161, 0.132161, -0.991228, 115.751182, 769.000617)"/>
  <polygon points="84.589 216.117 141.627 218.597 139.147 363.258 124.267 361.605 112.695 263.235 85.416 368.218 70.536 365.738 84.589 216.117" fill="#2f2e41" style=""/>
  <path d="M 122.614 130.147 L 102.775 126.094 L 90.376 216.944 C 90.376 216.944 126.747 240.916 138.32 216.117 Z" fill="#f1dcea" style=""/>
  <circle cx="113.961" cy="99.174" r="20.303" fill="#ffb8b8" style=""/>
  <path d="M 102.775 125.188 L 73.843 134.28 C 73.843 134.28 87.896 204.544 64.75 240.916 C 64.75 240.916 93.682 271.501 106.082 202.891 C 106.082 202.891 116.001 147.507 102.775 125.188 Z" fill="#2f2e41" style=""/>
  <path d="M 122.614 130.147 L 144.107 143.373 C 144.107 143.373 155.679 240.089 144.107 249.182 C 132.534 258.275 122.614 130.147 122.614 130.147 Z" fill="#2f2e41" style=""/>
  <path d="M 140.792 257.554 C 137.041 253.988 137.425 247.899 141.593 244.833 L 132.855 216.615 L 147.596 220.897 L 153.633 247.036 C 157.095 252.459 153.388 259.596 146.961 259.882 C 144.673 259.984 142.442 259.142 140.792 257.554 Z" fill="#ffb8b8" style=""/>
  <path d="M 78.791 255.047 C 74.614 251.991 74.215 245.903 77.956 242.328 L 65.678 215.461 L 80.846 217.821 L 90.18 242.973 C 94.308 247.908 91.544 255.46 85.207 256.567 C 82.951 256.961 80.631 256.411 78.791 255.047 Z" fill="#ffb8b8" style=""/>
  <polygon points="81.283 135.107 73.843 134.28 54.83 196.278 73.843 239.263 88.722 230.17 72.19 194.625 85.416 156.6 81.283 135.107" fill="#2f2e41" style=""/>
  <polygon points="127.723 136.893 131.857 137.719 151.696 234.435 138.47 238.568 122.764 181.531 127.723 136.893" fill="#2f2e41" style=""/>
  <path d="M 100.01 107.512 C 100.566 103.453 103.218 99.987 106.99 98.388 C 110.897 96.785 115.307 97.462 119.519 97.769 C 123.732 98.076 128.422 97.809 131.462 94.877 C 134.239 92.198 134.864 87.753 133.522 84.135 C 132.182 80.516 129.145 77.707 125.695 75.979 C 122.179 74.367 118.412 73.371 114.559 73.036 C 108.929 72.356 103.148 72.269 97.661 73.701 C 92.173 75.132 93.588 78.201 90.372 82.872 C 87.157 87.544 86.193 93.908 88.645 99.021 C 90.285 102.444 93.225 105.033 96.088 107.524" fill="#2f2e41" style=""/>
  <circle cx="745.492" cy="0.288" r="14.722" fill="#f1dcea" style=""/>
  <circle cx="575.433" cy="-140.578" r="21.696" fill="#f1dcea" style=""/>
  <polygon points="-192.315 -151.768 -186.776 -151.768 -184.141 -173.13 -192.315 -173.13 -192.315 -151.768" fill="#ffb8b8" style=""/>
  <path d="M -193.502 -153.35 L -176.095 -153.35 C -176.095 -153.35 -176.095 -153.35 -176.095 -153.35 L -176.095 -146.625 C -176.095 -146.625 -176.095 -146.625 -176.095 -146.625 L -186.776 -146.625 C -190.49 -146.625 -193.502 -149.635 -193.502 -153.35 L -193.502 -153.35 C -193.502 -153.35 -193.502 -153.35 -193.502 -153.35 Z" fill="#2f2e41" style="" transform="matrix(-1, 0.000046, -0.000046, -1, -369.603899, -299.966505)"/>
  <polygon points="-221.782 -152.832 -216.292 -152.1 -210.856 -172.927 -218.958 -174.007 -221.782 -152.832" fill="#ffb8b8" style=""/>
  <path d="M -223.27 -153.438 L -205.863 -153.438 C -205.863 -153.438 -205.863 -153.438 -205.863 -153.438 L -205.863 -146.712 C -205.863 -146.712 -205.863 -146.712 -205.863 -146.712 L -216.544 -146.712 C -220.259 -146.712 -223.27 -149.724 -223.27 -153.438 L -223.27 -153.438 C -223.27 -153.438 -223.27 -153.438 -223.27 -153.438 Z" fill="#2f2e41" style="" transform="matrix(-0.991228, -0.132161, 0.132161, -0.991228, -407.416818, -327.190925)"/>
  <polygon points="-213.914 -239.997 -182.742 -238.642 -184.097 -159.584 -192.229 -160.487 -198.554 -214.247 -213.462 -156.873 -221.593 -158.229 -213.914 -239.997" fill="#2f2e41" style=""/>
  <path d="M -193.133 -286.981 L -203.975 -289.195 L -210.751 -239.546 C -210.751 -239.546 -190.874 -226.445 -184.55 -239.997 Z" fill="#f1dcea" style=""/>
  <circle cx="-197.862" cy="-303.908" r="11.096" fill="#ffb8b8" style=""/>
  <path d="M -203.975 -289.692 L -219.786 -284.722 C -219.786 -284.722 -212.107 -246.321 -224.756 -226.445 C -224.756 -226.445 -208.944 -209.73 -202.168 -247.226 C -202.168 -247.226 -196.747 -277.494 -203.975 -289.692 Z" fill="#2f2e41" style=""/>
  <path d="M -193.133 -286.981 L -181.387 -279.753 C -181.387 -279.753 -175.062 -226.896 -181.387 -221.926 C -187.711 -216.958 -193.133 -286.981 -193.133 -286.981 Z" fill="#2f2e41" style=""/>
  <path d="M -176.503 -214.262 C -178.553 -216.21 -178.344 -219.538 -176.066 -221.214 L -180.841 -236.636 L -172.785 -234.295 L -169.486 -220.01 C -167.594 -217.047 -169.62 -213.146 -173.132 -212.99 C -174.383 -212.934 -175.602 -213.394 -176.503 -214.262 Z" fill="#ffb8b8" style=""/>
  <path d="M -217.083 -218.722 C -219.365 -220.391 -219.584 -223.719 -217.539 -225.674 L -224.249 -240.355 L -215.959 -239.066 L -210.858 -225.321 C -208.602 -222.623 -210.112 -218.497 -213.577 -217.892 C -214.809 -217.676 -216.077 -217.977 -217.083 -218.722 Z" fill="#ffb8b8" style=""/>
  <polygon points="-215.721 -284.269 -219.786 -284.722 -230.177 -250.84 -219.786 -227.348 -211.656 -232.317 -220.69 -251.744 -213.462 -272.525 -215.721 -284.269" fill="#2f2e41" style=""/>
  <polygon points="-183.646 -280.204 -181.387 -279.753 -170.544 -226.896 -177.773 -224.638 -186.357 -255.809 -183.646 -280.204" fill="#2f2e41" style=""/>
  <path d="M -205.487 -299.351 C -205.182 -301.57 -203.733 -303.464 -201.672 -304.338 C -199.536 -305.214 -197.126 -304.843 -194.824 -304.676 C -192.522 -304.509 -189.958 -304.653 -188.298 -306.256 C -186.78 -307.72 -186.438 -310.15 -187.172 -312.127 C -187.904 -314.104 -189.564 -315.639 -191.45 -316.585 C -193.371 -317.465 -195.429 -318.009 -197.534 -318.193 C -200.612 -318.564 -203.771 -318.612 -206.77 -317.83 C -209.769 -317.047 -208.996 -315.37 -210.753 -312.816 C -212.51 -310.264 -213.037 -306.786 -211.697 -303.991 C -210.801 -302.121 -209.194 -300.706 -207.63 -299.345" fill="#2f2e41" style=""/>
  <circle cx="52.902" cy="-357.579" r="8.046" fill="#f1dcea" style=""/>
  <circle cx="-40.036" cy="-434.562" r="11.857" fill="#f1dcea" style=""/>
</svg>