<?xml version="1.0" encoding="utf-8"?>
<!-- Svg Vector Icons : http://www.onlinewebfonts.com/icon -->
<!DOCTYPE svg PUBLIC "-//W3C//DTD SVG 1.1//EN" "http://www.w3.org/Graphics/SVG/1.1/DTD/svg11.dtd">
<svg version="1.1" xmlns="http://www.w3.org/2000/svg" xmlns:xlink="http://www.w3.org/1999/xlink" x="0px" y="0px" viewBox="0 0 1000 1000" enable-background="new 0 0 1000 1000" xml:space="preserve">
<metadata> Svg Vector Icons : http://www.onlinewebfonts.com/icon </metadata>
<g><g transform="translate(0.000000,511.000000) scale(0.100000,-0.100000)"><path d="M100,347.1v-3398.4h316.1h316.1v-237.1v-237.1h474.2h474.2v237.1v237.1H5000h3319.4v-237.1v-237.1h474.2h474.2v237.1v237.1h316.1H9900V347.1v3398.4H5000H100V347.1z M7054.8,3113.2v-316.1H4108.9c-2248.5,0-2965.7-5.9-3028.9-23.7c-108.7-31.6-292.4-215.4-324-324c-33.6-118.5-33.6-4086,0-4204.5c31.6-108.7,215.4-292.4,324-324c63.2-17.8,780.4-23.7,3028.9-23.7h2945.9V-2419v-316.1H3735.5H416.1V347.1v3082.3h3319.4h3319.4V3113.2z M9583.9,347.1v-3082.3h-156.1h-156.1l-7.9,205.5c-5.9,195.6-9.9,209.4-65.2,280.5c-116.6,142.3-132.4,146.2-715.3,146.2c-316.1,0-539.4-7.9-573-21.7c-75.1-27.7-164-112.6-195.6-189.7c-17.8-39.5-27.7-134.4-27.7-243v-177.8H7529H7371V347.1v3082.3h1106.5h1106.4V347.1z M7054.8,347.1v-2133.9H4091.1c-2938,0-2963.7,0-3003.2,39.5c-39.5,39.5-39.5,65.2-39.5,2094.4s0,2054.8,39.5,2094.4s65.2,39.5,3003.2,39.5h2963.7V347.1z M8951.6-2577.1v-158.1h-474.2h-474.2v158.1v158.1h474.2h474.2V-2577.1z M1364.5-3130.3v-79h-158.1h-158.1v79v79h158.1h158.1V-3130.3z M8951.6-3130.3v-79h-158.1h-158.1v79v79h158.1h158.1V-3130.3z"/><path d="M7687.1,2164.8v-474.2h790.3h790.3v474.2V2639h-790.3h-790.3V2164.8z M8951.6,2164.8v-158.1h-474.2h-474.2v158.1v158.1h474.2h474.2V2164.8z"/><path d="M7687.1,1216.5v-158.1h158.1h158.1v158.1v158.1h-158.1h-158.1V1216.5z"/><path d="M8319.4,1216.5v-158.1h158.1h158.1v158.1v158.1h-158.1h-158.1V1216.5z"/><path d="M8951.6,1216.5v-158.1h158.1h158.1v158.1v158.1h-158.1h-158.1V1216.5z"/><path d="M7687.1,584.2V426.1h158.1h158.1v158.1v158.1h-158.1h-158.1V584.2z"/><path d="M8319.4,584.2V426.1h158.1h158.1v158.1v158.1h-158.1h-158.1V584.2z"/><path d="M8951.6,584.2V426.1h158.1h158.1v158.1v158.1h-158.1h-158.1V584.2z"/><path d="M7687.1-48.1v-158.1h158.1h158.1v158.1V110h-158.1h-158.1V-48.1z"/><path d="M8319.4-48.1v-158.1h158.1h158.1v158.1V110h-158.1h-158.1V-48.1z"/><path d="M8951.6-48.1v-158.1h158.1h158.1v158.1V110h-158.1h-158.1V-48.1z"/></g></g>
</svg>