<?xml version="1.0" encoding="utf-8"?>
<!-- Svg Vector Icons : http://www.onlinewebfonts.com/icon -->
<!DOCTYPE svg PUBLIC "-//W3C//DTD SVG 1.1//EN" "http://www.w3.org/Graphics/SVG/1.1/DTD/svg11.dtd">
<svg version="1.1" xmlns="http://www.w3.org/2000/svg" xmlns:xlink="http://www.w3.org/1999/xlink" x="0px" y="0px" viewBox="0 0 1000 1000" enable-background="new 0 0 1000 1000" xml:space="preserve">
<metadata> Svg Vector Icons : http://www.onlinewebfonts.com/icon </metadata>
<g><g transform="translate(0.000000,511.000000) scale(0.100000,-0.100000)"><path d="M1680.6,110v-4900H5000h3319.4V110v4900H5000H1680.6V110z M4209.7,426.1v-4267.8H3103.2H1996.8V426.1v4267.7h1106.5h1106.4V426.1z M8003.2,426.1v-4267.8H6264.5H4525.8V426.1v4267.7h1738.7h1738.7V426.1z M8003.2-4315.8v-158.1H5000H1996.8v158.1v158.1H5000h3003.2V-4315.8z"/><path d="M3735.5,584.2v-2371h158.1h158.1v2371v2371h-158.1h-158.1V584.2z"/><path d="M2154.8,584.2V-522.2h711.3h711.3V584.2v1106.5h-711.3h-711.3V584.2z M3261.3,1216.5v-158.1h-395.2H2471v158.1v158.1h395.2h395.2V1216.5z M3261.3,268.1v-474.2h-395.2H2471v474.2v474.2h395.2h395.2V268.1z"/><path d="M4683.9,584.2v-2371h158.1H5000v2371v2371h-158.1h-158.1V584.2z"/></g></g>
</svg>