<?xml version="1.0" encoding="utf-8"?>
<!-- Svg Vector Icons : http://www.onlinewebfonts.com/icon -->
<!DOCTYPE svg PUBLIC "-//W3C//DTD SVG 1.1//EN" "http://www.w3.org/Graphics/SVG/1.1/DTD/svg11.dtd">
<svg version="1.1" xmlns="http://www.w3.org/2000/svg" xmlns:xlink="http://www.w3.org/1999/xlink" x="0px" y="0px" viewBox="0 0 1000 1000" enable-background="new 0 0 1000 1000" xml:space="preserve">
<metadata> Svg Vector Icons : http://www.onlinewebfonts.com/icon </metadata>
<g><g transform="translate(0.000000,511.000000) scale(0.100000,-0.100000)"><path d="M4770.4,5003.3c-560.2-101-1055-583.9-1161.9-1132.2l-21.8-112.8l-823.4-5.9c-787.8-7.9-825.4-9.9-936.2-51.5c-370.2-138.6-635.4-413.7-740.3-770c-31.7-108.9-41.6-122.7-95-132.6c-79.2-15.8-194-112.8-235.6-197.9c-41.6-87.1-43.5-437.4-4-534.4c31.7-77.2,156.4-184.1,233.6-199.9c49.5-11.9,55.4-21.8,55.4-89.1v-75.2l-332.5-7.9c-326.6-5.9-334.5-7.9-415.7-61.4c-257.3-170.2-257.3-490.9,0-661.1c81.1-53.4,89.1-55.4,415.7-61.4l332.5-7.9V-960.6c0-1175.8,7.9-1912.1,19.8-1993.3c77.2-485,352.3-884.8,793.7-1152c132.6-81.1,372.1-166.3,518.6-186.1l93-13.9v-243.5v-245.5h475.1h475.1v237.5v237.5H5000h1583.5v-237.5v-237.5h475h475.1v245.5v243.5l99,13.9c156.4,19.8,393.9,112.8,562.1,217.7c391.9,245.4,671,665.1,744.2,1120.3c11.9,81.2,19.8,817.5,19.8,1995.2V906h289c344.4,0,423.6,19.8,532.5,128.7c188,188,150.4,461.2-83.1,605.7c-69.3,43.5-97,47.5-405.8,53.4l-332.5,7.9v75.2c0,67.3,5.9,77.2,55.4,89.1c77.2,15.8,190,112.8,229.6,196c41.6,87.1,43.5,437.4,3.9,534.4c-33.6,81.2-160.3,186.1-241.5,201.9c-53.4,9.9-63.3,21.8-87.1,110.8c-43.5,172.2-152.4,364.2-285,498.8c-138.6,138.6-249.4,211.8-445.4,287l-130.6,51.5l-823.4,5.9l-825.4,5.9l-13.9,91.1c-37.6,259.3-213.8,568.1-439.4,777.9c-263.3,245.4-554.2,372.1-890.7,386C4958.4,5017.2,4825.8,5013.2,4770.4,5003.3z M5275.1,4676.7c386-91.1,712.6-415.7,801.7-799.7l27.7-120.7H5005.9H3905.4l13.8,93c21.8,156.4,154.4,401.8,291,538.4c134.6,134.6,370.2,263.3,542.4,294.9C4905,4712.3,5134.6,4708.4,5275.1,4676.7z M8109.6,3400c152.4-47.5,291-146.5,384-273.2c63.3-87.1,128.7-235.6,128.7-294.9c0-21.8-633.4-25.7-3624.3-25.7H1373.7l9.9,57.4c35.6,178.1,215.8,407.8,380,486.9c186.1,89.1,106.9,87.1,3238.3,87.1C7933.5,3439.6,7986.9,3439.6,8109.6,3400z M8958.8,2331.1v-158.3H5000H1041.2v158.3v158.4H5000h3958.8V2331.1z M8642.1-513.3c0-2648.4,5.9-2517.8-140.5-2814.7c-158.3-322.6-483-570.1-839.3-645.3c-207.8-43.6-5116.7-43.6-5324.6,0c-356.3,75.2-680.9,322.6-839.3,645.3c-146.5,296.9-140.5,166.3-140.5,2814.7v2369.4H5000h3642.1V-513.3z M1041.2,1301.8v-81.2l-310.8,5.9c-310.8,5.9-312.7,5.9-318.7,51.5c-13.9,101-7.9,102.9,322.6,102.9h306.8V1301.8z M9582.3,1301.8v-69.3l-310.8-5.9l-312.7-5.9v81.2v81.2l312.7-5.9l310.8-5.9V1301.8z M3099.8-4398.8v-79.2h-158.3h-158.4v79.2v79.2h158.4h158.3V-4398.8z M7216.9-4398.8v-79.2h-158.3h-158.3v79.2v79.2h158.3h158.3V-4398.8z"/><path d="M4228,246.8c-99-31.7-283.1-221.7-312.7-322.7c-17.8-61.4-23.8-522.6-23.8-1846.8v-1763.7H5000h1108.5v1763.7c0,1324.2-5.9,1785.4-23.8,1846.8c-31.7,108.9-215.8,293-324.6,324.6C5653.2,280.5,4329,278.5,4228,246.8z M5752.2-83.8c39.6-39.6,39.6-65.3,39.6-1662.7v-1623.1H5000h-791.8v1623.1c0,1597.4,0,1623.1,39.6,1662.7c37.6,37.6,65.3,39.6,752.2,39.6S5714.6-46.1,5752.2-83.8z"/><path d="M4606.1-861.7c-102.9-51.5-95-219.7,9.9-269.2c67.3-29.7,700.7-29.7,768,0c71.3,33.6,102.9,120.7,71.3,197.9c-13.9,33.6-47.5,69.3-73.2,79.2C5306.8-826,4663.5-832,4606.1-861.7z"/><path d="M4366.6-2657v-395.9H5000h633.4v395.9v395.9H5000h-633.4V-2657z M5316.7-2657v-79.2H5000h-316.7v79.2v79.2H5000h316.7V-2657z"/></g></g>
</svg>