<?xml version="1.0" encoding="utf-8"?>
<svg viewBox="0 0 490 309" xmlns="http://www.w3.org/2000/svg">
  <polygon points="283.485 201.173 220.024 256.652 206.138 268.79 167.284 268.548 134.123 268.34 131.37 268.323 124.641 260.209 97.886 227.95 84.456 211.754 80.418 206.886 77.496 203.362 70.987 195.513 60.447 182.806 71.121 173.476 81.316 164.561 88.644 158.156 180.911 77.495 283.485 201.173" fill="#f2f2f2" style=""/>
  <rect x="168.451" y="286.927" width="114.579" height="0.629" fill="#3f3d56" style=""/>
  <path d="M 140.424 267.637 L 48.714 267.637 C 48.714 267.637 46.855 239.644 57.855 239.327 C 68.853 239.008 67.613 251.732 81.401 234.236 C 95.188 216.742 111.92 217.696 114.089 228.034 C 116.257 238.371 109.906 246.643 121.524 244.098 C 133.142 241.553 149.874 248.232 140.424 267.637 Z" fill="#f1dcea" style=""/>
  <path d="M 90.305 267.19 L 89.995 267.178 C 90.717 248.748 94.477 236.907 97.504 230.218 C 100.79 222.956 103.956 220.016 103.988 219.987 L 104.194 220.226 C 104.164 220.253 101.033 223.164 97.774 230.378 C 94.763 237.037 91.024 248.83 90.305 267.19 Z" fill="#f2f2f2" style=""/>
  <path d="M 64.87 266.979 L 64.563 266.934 C 65.779 257.938 63.584 250.956 61.53 246.685 C 59.303 242.06 56.764 239.534 56.738 239.508 L 56.953 239.279 C 56.979 239.305 59.557 241.869 61.806 246.545 C 63.881 250.855 66.095 257.9 64.87 266.979 Z" fill="#f2f2f2" style=""/>
  <rect x="48.341" y="267.9" width="337.303" height="0.629" fill="#3f3d56" style=""/>
  <path d="M 481.099 302.703 L 299.732 302.703 C 299.732 302.703 296.056 247.345 317.808 246.715 C 339.561 246.087 337.109 271.249 364.375 236.651 C 391.641 202.052 424.728 203.94 429.017 224.384 C 433.306 244.829 420.746 261.184 443.723 256.152 C 466.7 251.12 499.786 264.33 481.099 302.703 Z" fill="#f1dcea" style=""/>
  <path d="M 377.899 303.744 L 377.287 303.718 C 378.715 267.272 386.149 243.854 392.135 230.628 C 398.635 216.266 404.897 210.452 404.959 210.395 L 405.367 210.865 C 405.304 210.922 399.115 216.678 392.669 230.942 C 386.716 244.113 379.321 267.434 377.899 303.744 Z" fill="#f2f2f2" style=""/>
  <path d="M 446.909 303.516 L 446.337 303.346 C 453.225 279.072 469.445 263.747 469.608 263.595 L 470.009 264.048 C 469.848 264.198 453.748 279.415 446.909 303.516 Z" fill="#f2f2f2" style=""/>
  <path d="M 325.643 303.472 L 325.053 303.388 C 327.389 286.085 323.167 272.659 319.215 264.444 C 314.934 255.549 310.052 250.692 310.003 250.643 L 310.415 250.201 C 310.465 250.251 315.424 255.184 319.749 264.174 C 323.74 272.466 327.999 286.016 325.643 303.472 Z" fill="#f2f2f2" style=""/>
  <rect y="302.838" width="256.424" height="0.629" fill="#3f3d56" x="222.765" style=""/>
  <polygon points="208.584 279.718 216.516 279.718 220.29 249.12 208.583 249.12 208.584 279.718" fill="#ffb8b8" style=""/>
  <path d="M 206.884 277.449 L 231.814 277.449 C 231.814 277.449 231.814 277.449 231.814 277.449 L 231.814 287.082 C 231.814 287.082 231.814 287.082 231.814 287.082 L 216.516 287.082 C 211.196 287.082 206.884 282.77 206.884 277.449 L 206.884 277.449 C 206.884 277.449 206.884 277.449 206.884 277.449 Z" fill="#2f2e41" style="" transform="matrix(-1, 0.000046, -0.000046, -1, 438.710982, 564.520916)"/>
  <polygon points="166.38 278.191 174.243 279.24 182.029 249.411 170.424 247.864 166.38 278.191" fill="#ffb8b8" style=""/>
  <path d="M 164.25 277.327 L 189.18 277.327 C 189.18 277.327 189.18 277.327 189.18 277.327 L 189.18 286.959 C 189.18 286.959 189.18 286.959 189.18 286.959 L 173.882 286.959 C 168.562 286.959 164.25 282.647 164.25 277.327 L 164.25 277.327 C 164.25 277.327 164.25 277.327 164.25 277.327 Z" fill="#2f2e41" style="" transform="matrix(-0.991228, -0.132161, 0.132161, -0.991228, 314.591578, 585.165964)"/>
  <polygon points="177.649 153.352 222.294 155.294 220.352 268.522 208.706 267.228 199.648 190.232 178.297 272.404 166.649 270.463 177.649 153.352" fill="#2f2e41" style=""/>
  <path d="M 207.412 86.062 L 191.884 82.889 L 182.179 154 C 182.179 154 210.647 172.763 219.706 153.352 Z" fill="#f1dcea" style=""/>
  <circle cx="200.639" cy="61.819" r="15.892" fill="#ffb8b8" style=""/>
  <path d="M 191.884 82.18 L 169.238 89.296 C 169.238 89.296 180.237 144.294 162.121 172.763 C 162.121 172.763 184.767 196.702 194.472 143 C 194.472 143 202.236 99.65 191.884 82.18 Z" fill="#2f2e41" style=""/>
  <path d="M 207.412 86.062 L 224.235 96.414 C 224.235 96.414 233.293 172.115 224.235 179.233 C 215.176 186.35 207.412 86.062 207.412 86.062 Z" fill="#2f2e41" style=""/>
  <path d="M 221.64 185.785 C 218.704 182.995 219.005 178.228 222.267 175.828 L 215.428 153.742 L 226.966 157.093 L 231.691 177.553 C 234.401 181.798 231.5 187.384 226.469 187.608 C 224.678 187.688 222.932 187.028 221.64 185.785 Z" fill="#ffb8b8" style=""/>
  <path d="M 173.111 183.824 C 169.842 181.431 169.53 176.667 172.457 173.868 L 162.847 152.838 L 174.719 154.686 L 182.025 174.373 C 185.256 178.236 183.093 184.147 178.133 185.013 C 176.367 185.321 174.551 184.891 173.111 183.824 Z" fill="#ffb8b8" style=""/>
  <polygon points="175.061 89.944 169.238 89.296 154.356 137.824 169.238 171.469 180.884 164.352 167.944 136.53 178.297 106.767 175.061 89.944" fill="#2f2e41" style=""/>
  <polygon points="211.411 91.342 214.647 91.989 230.175 167.69 219.823 170.925 207.53 126.281 211.411 91.342" fill="#2f2e41" style=""/>
  <path d="M 189.719 68.345 C 190.155 65.168 192.231 62.455 195.183 61.203 C 198.241 59.949 201.693 60.479 204.99 60.719 C 208.287 60.959 211.958 60.75 214.337 58.455 C 216.511 56.359 217.001 52.879 215.95 50.048 C 214.901 47.215 212.524 45.016 209.824 43.663 C 207.071 42.402 204.123 41.622 201.107 41.359 C 196.7 40.827 192.176 40.759 187.881 41.881 C 183.585 43 184.693 45.403 182.176 49.059 C 179.659 52.716 178.904 57.697 180.824 61.699 C 182.108 64.378 184.409 66.404 186.65 68.354" fill="#2f2e41" style=""/>
  <polygon points="208.584 279.718 216.516 279.718 220.29 249.12 208.583 249.12 208.584 279.718" fill="#ffb8b8" style=""/>
  <path d="M 206.884 277.449 L 231.814 277.449 C 231.814 277.449 231.814 277.449 231.814 277.449 L 231.814 287.082 C 231.814 287.082 231.814 287.082 231.814 287.082 L 216.516 287.082 C 211.196 287.082 206.884 282.77 206.884 277.449 L 206.884 277.449 C 206.884 277.449 206.884 277.449 206.884 277.449 Z" fill="#2f2e41" style="" transform="matrix(-1, 0.000046, -0.000046, -1, 438.710982, 564.520916)"/>
  <polygon points="166.38 278.191 174.243 279.24 182.029 249.411 170.424 247.864 166.38 278.191" fill="#ffb8b8" style=""/>
  <path d="M 164.25 277.327 L 189.18 277.327 C 189.18 277.327 189.18 277.327 189.18 277.327 L 189.18 286.959 C 189.18 286.959 189.18 286.959 189.18 286.959 L 173.882 286.959 C 168.562 286.959 164.25 282.647 164.25 277.327 L 164.25 277.327 C 164.25 277.327 164.25 277.327 164.25 277.327 Z" fill="#2f2e41" style="" transform="matrix(-0.991228, -0.132161, 0.132161, -0.991228, 314.591578, 585.165964)"/>
  <polygon points="177.649 153.352 222.294 155.294 220.352 268.522 208.706 267.228 199.648 190.232 178.297 272.404 166.649 270.463 177.649 153.352" fill="#2f2e41" style=""/>
  <path d="M 207.412 86.062 L 191.884 82.889 L 182.179 154 C 182.179 154 210.647 172.763 219.706 153.352 Z" fill="#f1dcea" style=""/>
  <circle cx="200.639" cy="61.819" r="15.892" fill="#ffb8b8" style=""/>
  <path d="M 191.884 82.18 L 169.238 89.296 C 169.238 89.296 180.237 144.294 162.121 172.763 C 162.121 172.763 184.767 196.702 194.472 143 C 194.472 143 202.236 99.65 191.884 82.18 Z" fill="#2f2e41" style=""/>
  <path d="M 207.412 86.062 L 224.235 96.414 C 224.235 96.414 233.293 172.115 224.235 179.233 C 215.176 186.35 207.412 86.062 207.412 86.062 Z" fill="#2f2e41" style=""/>
  <path d="M 221.64 185.785 C 218.704 182.995 219.005 178.228 222.267 175.828 L 215.428 153.742 L 226.966 157.093 L 231.691 177.553 C 234.401 181.798 231.5 187.384 226.469 187.608 C 224.678 187.688 222.932 187.028 221.64 185.785 Z" fill="#ffb8b8" style=""/>
  <path d="M 173.111 183.824 C 169.842 181.431 169.53 176.667 172.457 173.868 L 162.847 152.838 L 174.719 154.686 L 182.025 174.373 C 185.256 178.236 183.093 184.147 178.133 185.013 C 176.367 185.321 174.551 184.891 173.111 183.824 Z" fill="#ffb8b8" style=""/>
  <polygon points="175.061 89.944 169.238 89.296 154.356 137.824 169.238 171.469 180.884 164.352 167.944 136.53 178.297 106.767 175.061 89.944" fill="#2f2e41" style=""/>
  <polygon points="211.411 91.342 214.647 91.989 230.175 167.69 219.823 170.925 207.53 126.281 211.411 91.342" fill="#2f2e41" style=""/>
  <path d="M 189.719 68.345 C 190.155 65.168 192.231 62.455 195.183 61.203 C 198.241 59.949 201.693 60.479 204.99 60.719 C 208.287 60.959 211.958 60.75 214.337 58.455 C 216.511 56.359 217.001 52.879 215.95 50.048 C 214.901 47.215 212.524 45.016 209.824 43.663 C 207.071 42.402 204.123 41.622 201.107 41.359 C 196.7 40.827 192.176 40.759 187.881 41.881 C 183.585 43 184.693 45.403 182.176 49.059 C 179.659 52.716 178.904 57.697 180.824 61.699 C 182.108 64.378 184.409 66.404 186.65 68.354" fill="#2f2e41" style=""/>
  <path id="b3ac2088-de9b-4f7f-bc99-0ed9705c1a9d" data-name="Path 22" d="M 409.677 54.278 L 408.537 54.278 L 408.537 23.058 C 408.537 13.078 400.447 4.988 390.468 4.988 L 324.322 4.988 C 314.343 4.988 306.252 13.078 306.252 23.058 L 306.252 194.335 C 306.252 204.315 314.343 212.404 324.322 212.404 L 390.468 212.404 C 400.447 212.404 408.537 204.315 408.537 194.335 L 408.537 76.501 L 409.677 76.501 Z" fill="#e6e6e6" style=""/>
  <path id="b2715b96-3117-487c-acc0-20904544b5b7" data-name="Path 23" d="M 391.197 9.687 L 382.563 9.687 C 384.283 13.905 381.181 18.521 376.627 18.52 L 338.733 18.52 C 334.179 18.52 331.076 13.904 332.796 9.687 L 324.733 9.687 C 317.279 9.687 311.238 15.729 311.238 23.182 L 311.238 194.211 C 311.238 201.663 317.279 207.704 324.733 207.704 L 391.197 207.704 C 398.649 207.704 404.691 201.663 404.691 194.211 L 404.691 194.211 L 404.691 23.182 C 404.691 15.729 398.649 9.687 391.197 9.687 Z" fill="#fff" style=""/>
  <path id="b06d66ec-6c84-45dd-8c27-1263a6253192" data-name="Path 6" d="M 349.495 77.817 C 349.495 75.383 350.794 73.135 352.901 71.92 C 348.362 69.298 342.687 72.573 342.687 77.816 C 342.686 83.057 348.359 86.334 352.9 83.713 C 352.901 83.713 352.901 83.712 352.901 83.712 C 350.794 82.498 349.495 80.25 349.495 77.817 Z" fill="#ccc" style=""/>
  <path id="e73810fe-4cf4-40cc-8c7c-ca544ce30bd4" data-name="Path 7" d="M 358.056 77.817 C 358.055 75.383 359.354 73.135 361.462 71.92 C 356.922 69.298 351.248 72.573 351.247 77.816 C 351.246 83.057 356.92 86.334 361.46 83.713 C 361.461 83.713 361.461 83.712 361.462 83.712 C 359.354 82.498 358.056 80.25 358.056 77.817 Z" fill="#ccc" style=""/>
  <circle id="a4813fcf-056e-4514-bb8b-e6506f49341f" data-name="Ellipse 1" cx="366.421" cy="77.816" r="6.809" fill="#f1dcea" style=""/>
  <path id="bbe451c3-febc-41ba-8083-4c8307a2e73e" data-name="Path 8" d="M 377.802 99.084 L 338.116 99.084 C 337.328 99.084 336.691 98.446 336.69 97.659 L 336.69 57.973 C 336.691 57.186 337.328 56.549 338.116 56.548 L 377.802 56.548 C 378.588 56.549 379.226 57.186 379.227 57.973 L 379.227 97.659 C 379.226 98.446 378.588 99.084 377.802 99.084 Z M 338.116 57.118 C 337.643 57.119 337.26 57.502 337.26 57.974 L 337.26 97.659 C 337.26 98.131 337.643 98.514 338.116 98.515 L 377.802 98.515 C 378.273 98.514 378.657 98.131 378.657 97.659 L 378.657 57.974 C 378.657 57.502 378.273 57.119 377.802 57.118 Z" fill="#ccc" style=""/>
  <rect id="bb28937d-932f-4fdf-befe-f406e51091fe" data-name="Rectangle 1" x="325.796" y="129.506" width="60.867" height="0.57" fill="#ccc" style=""/>
  <circle id="fcef55fc-4968-45b2-93bb-1a1080c85fc7" data-name="Ellipse 2" cx="327.718" cy="124.025" r="1.922" fill="#f1dcea" style=""/>
  <rect id="ff33d889-4c74-4b91-85ef-b4882cc8fe76" data-name="Rectangle 2" x="325.796" y="148.726" width="60.867" height="0.57" fill="#ccc" style=""/>
  <circle id="e8fa0310-b872-4adf-aedd-0c6eda09f3b8" data-name="Ellipse 3" cx="327.718" cy="143.245" r="1.922" fill="#f1dcea" style=""/>
  <path d="M 385.55 170.614 L 366.313 170.614 C 365.621 170.614 365.061 170.054 365.06 169.361 L 365.06 162.619 C 365.061 161.928 365.621 161.366 366.313 161.366 L 385.55 161.366 C 386.241 161.366 386.801 161.928 386.803 162.619 L 386.803 169.361 C 386.801 170.054 386.241 170.614 385.55 170.614 Z" fill="#f1dcea" style=""/>
  <circle id="e12ee00d-aa4a-4413-a013-11d20b7f97f7" data-name="Ellipse 7" cx="333.989" cy="124.025" r="1.922" fill="#f1dcea" style=""/>
  <circle id="f58f497e-6949-45c8-be5f-eee2aa0f6586" data-name="Ellipse 8" cx="340.259" cy="124.025" r="1.922" fill="#f1dcea" style=""/>
  <circle id="b4d4939a-c6e6-4f4d-ba6c-e8b05485017d" data-name="Ellipse 9" cx="333.989" cy="143.245" r="1.922" fill="#f1dcea" style=""/>
  <circle id="aff120b1-519b-4e96-ac87-836aa55663de" data-name="Ellipse 10" cx="340.259" cy="143.245" r="1.922" fill="#f1dcea" style=""/>
</svg>