<?xml version="1.0" encoding="utf-8"?>
<!-- Svg Vector Icons : http://www.onlinewebfonts.com/icon -->
<!DOCTYPE svg PUBLIC "-//W3C//DTD SVG 1.1//EN" "http://www.w3.org/Graphics/SVG/1.1/DTD/svg11.dtd">
<svg version="1.1" xmlns="http://www.w3.org/2000/svg" xmlns:xlink="http://www.w3.org/1999/xlink" x="0px" y="0px" viewBox="0 0 1000 1000" enable-background="new 0 0 1000 1000" xml:space="preserve">
<metadata> Svg Vector Icons : http://www.onlinewebfonts.com/icon </metadata>
<g><g transform="translate(0.000000,511.000000) scale(0.100000,-0.100000)"><path d="M437.3,4982.9c-98.8-31.6-282.5-221.2-312.1-322c-33.6-118.5-33.6-5506.9,0-5625.4c31.6-108.6,215.3-292.3,323.9-323.9c45.4-13.8,126.4-23.7,183.7-23.7h100.7v-395v-395h-316h-316v-158v-158h711.1h711.1v-553v-553.1H812.6H101.5v-632.1v-632.1H5000h4898.5v632.1v632.1h-711.1h-711.1v553.1v553h711.1h711.1v158v158h-316h-316v395v395h100.7c57.3,0,138.3,9.9,183.7,23.7c108.6,31.6,292.3,215.3,323.9,323.9c33.6,118.5,33.6,5506.9,0,5625.4c-31.6,108.6-215.3,292.3-323.9,323.9c-51.4,13.8-217.3,23.7-442.5,23.7c-225.2,0-391.1-9.9-442.5-23.7c-108.6-31.6-292.3-215.3-323.9-323.9c-33.6-118.5-33.6-5506.9,0-5625.4c31.6-108.6,215.3-292.3,323.9-323.9c45.4-13.8,126.4-23.7,183.7-23.7h100.7v-395v-395H7291.2H5632.1v237v237h969.8c703.2,0,993.6,5.9,1052.8,23.7c108.6,31.6,292.3,215.3,323.9,323.9c33.6,116.5,33.6,2980.6,0,3097.1c-31.6,108.6-215.3,292.3-323.9,323.9c-118.5,33.6-5190.9,33.6-5309.4,0c-108.6-31.6-292.3-215.3-323.9-323.9c-33.6-116.5-33.6-2980.6,0-3097.1c31.6-108.6,215.3-292.3,323.9-323.9c59.3-17.8,349.6-23.7,1052.8-23.7h969.8v-237v-237H2708.8H1049.6v395v395h100.7c57.3,0,138.3,9.9,183.7,23.7c108.6,31.6,292.3,215.3,323.9,323.9c33.6,118.5,33.6,5506.9,0,5625.4c-31.6,108.6-215.3,292.3-323.9,323.9C1231.3,5014.4,534,5014.4,437.3,4982.9z M1326.1,4653c35.6-35.6,39.5-65.2,39.5-347.6v-308.1l-61.2,53.3c-134.3,110.6-252.8,156-412.8,156c-160,0-278.5-45.4-412.8-156l-61.2-53.3v308.1c0,416.8-35.5,387.1,474.1,387.1C1260.9,4692.5,1288.6,4690.5,1326.1,4653z M9543,4653c35.5-35.6,39.5-65.2,39.5-347.6v-308.1l-61.2,53.3c-244.9,205.4-537.3,215.3-786.2,27.7l-100.7-77v306.2c0,414.8-35.6,385.2,474,385.2C9477.8,4692.5,9505.4,4690.5,9543,4653z M1085.1,3851c86.9-65.2,126.4-160,116.5-290.4c-11.9-197.5-130.4-298.3-335.8-284.4c-197.5,11.9-298.3,130.4-284.4,335.8c7.9,130.4,51.3,203.5,154.1,256.8C824.4,3916.2,1008.1,3906.4,1085.1,3851z M9302,3851c86.9-65.2,126.4-160,116.5-290.4c-11.9-197.5-130.4-298.3-335.8-284.4c-197.5,11.9-298.3,130.4-284.4,335.8c7.9,130.4,51.4,203.5,154.1,256.8C9041.3,3916.2,9225,3906.4,9302,3851z M642.7,3017.5c83-41.5,128.4-51.4,248.9-51.4c160,0,280.5,45.4,412.8,156l61.2,53.3v-458.3V2259l-61.2,53.3c-134.3,110.6-252.8,156-412.8,156c-160,0-278.5-45.4-412.8-156l-61.2-53.3v458.3v458.3l61.2-53.3C514.3,3094.5,587.4,3047.1,642.7,3017.5z M8859.6,3019.5c146.2-75.1,355.5-77,497.7-2c55.3,29.6,128.4,77,164,104.7l61.2,53.3v-458.3V2259l-61.2,53.3c-134.3,110.6-252.8,156-412.8,156c-160,0-278.5-45.4-412.8-156l-61.2-53.3v458.3v458.3l61.2-53.3C8731.2,3094.5,8804.2,3047.1,8859.6,3019.5z M1085.1,2112.9c86.9-65.2,126.4-160,116.5-290.4c-11.9-197.5-130.4-298.3-335.8-284.4c-197.5,11.9-298.3,130.4-284.4,335.8c7.9,130.4,51.3,203.5,154.1,256.8C824.4,2178.1,1008.1,2168.2,1085.1,2112.9z M9302,2112.9c86.9-65.2,126.4-160,116.5-290.4c-11.9-197.5-130.4-298.3-335.8-284.4c-197.5,11.9-298.3,130.4-284.4,335.8c7.9,130.4,51.4,203.5,154.1,256.8C9041.3,2178.1,9225,2168.2,9302,2112.9z M7646.8,1808.7c39.5-39.5,39.5-65.2,39.5-1264.1V-680.1H5000H2313.7V544.6c0,1199,0,1224.6,39.5,1264.1c39.5,39.5,65.2,39.5,2646.8,39.5C7581.6,1848.2,7607.3,1848.2,7646.8,1808.7z M642.7,1279.3c83-41.5,128.4-51.4,248.9-51.4c160,0,280.5,45.4,412.8,156l61.2,53.3V979.1V520.8l-61.2,53.3c-244.9,205.4-537.2,215.3-786.1,27.7l-100.7-77v456.3v456.3l61.2-53.3C514.3,1356.4,587.4,1309,642.7,1279.3z M8859.6,1279.3c82.9-43.5,126.4-53.3,248.9-51.4c160,0,282.5,47.4,412.8,156l61.2,53.3V979.1V520.8l-61.2,53.3c-244.9,205.4-537.3,215.3-786.2,27.7l-100.7-77v456.3v456.3l61.2-53.3C8731.2,1356.4,8804.2,1309,8859.6,1279.3z M1085.1,374.7c86.9-65.2,126.4-160,116.5-290.3c-11.9-197.5-130.4-298.3-335.8-284.4C668.4-188.3,567.6-69.7,581.5,135.7c7.9,130.4,51.3,203.5,154.1,256.8C824.4,439.9,1008.1,430,1085.1,374.7z M9302,374.7c86.9-65.2,126.4-160,116.5-290.3c-11.9-197.5-130.4-298.3-335.8-284.4c-197.5,11.9-298.3,130.4-284.4,335.8c7.9,130.4,51.4,203.5,154.1,256.8C9041.3,439.9,9225,430,9302,374.7z M642.7-456.9c146.2-75.1,355.5-77,497.8-2c55.3,29.6,128.4,77,163.9,104.7l61.2,53.3V-609c0-416.8,35.6-387.1-474-387.1S417.5-1025.7,417.5-609v308.1l61.2-53.3C514.3-381.8,587.4-429.2,642.7-456.9z M8859.6-458.9c82.9-41.5,128.4-51.4,248.9-51.4c160,0,280.5,45.4,412.8,156.1l61.2,53.3V-609c0-416.8,35.5-387.1-474.1-387.1s-474-29.6-474,387.1v308.1l61.2-53.3C8731.2-381.8,8804.2-429.2,8859.6-458.9z M7686.3-1114.6c0-92.9-7.9-126.4-39.5-158c-39.5-39.5-65.2-39.5-2646.8-39.5c-2581.6,0-2607.3,0-2646.8,39.5c-31.6,31.6-39.5,65.2-39.5,158v118.5H5000h2686.3V-1114.6z M5316-1865.2v-237h-316h-316v237v237h316h316V-1865.2z M2155.7-3445.4v-1027.1h-158h-158v1027.1v1027.1h158h158V-3445.4z M3123.5-2469.6c-11.9-27.7-19.8-252.8-19.8-501.7s7.9-474.1,19.8-501.7l19.8-51.3h-335.8h-335.8v553.1v553h335.8h335.8L3123.5-2469.6z M6540.7-2457.8c37.5-37.5,39.5-65.2,39.5-513.6s-2-476-39.5-513.6c-39.5-39.5-65.2-39.5-1540.7-39.5s-1501.2,0-1540.7,39.5c-37.5,37.5-39.5,65.2-39.5,513.6s2,476,39.5,513.6c39.5,39.5,65.2,39.5,1540.7,39.5S6501.2-2418.3,6540.7-2457.8z M7528.3-2971.3v-553.1h-335.8h-335.8l19.8,51.3c11.8,27.7,19.7,252.9,19.7,501.7s-7.9,474-19.7,501.7l-19.8,51.3h335.8h335.8V-2971.3z M8160.3-3445.4v-1027.1h-158h-158v1027.1v1027.1h158h158V-3445.4z M1523.6-4156.5v-316H970.6H417.5v316v316h553.1h553.1V-4156.5z M7528.3-4156.5v-316H5000H2471.7v316v316H5000h2528.3V-4156.5z M9582.5-4156.5v-316h-553.1h-553.1v316v316h553.1h553.1V-4156.5z"/><path d="M4016.3-2598c-37.5-9.9-104.7-59.3-152.1-106.7c-144.2-144.2-162-323.9-49.4-480c152.1-209.4,402.9-233.1,582.7-55.3c142.2,144.2,162,327.9,49.4,482C4344.2-2615.8,4170.4-2550.6,4016.3-2598z M4200-2971.3c0-65.2-4-69.1-69.1-69.1c-57.3,0-71.1,7.9-75.1,45.4c-11.9,79,9.9,106.7,79,98.8C4194.1-2902.2,4200-2908.1,4200-2971.3z"/><path d="M5754.5-2598c-37.5-9.9-104.7-59.3-152.1-106.7c-144.2-144.2-162-323.9-49.4-480c171.9-239,482-229.1,645.9,19.7c112.6,167.9,55.3,397-128.4,519.5C5985.6-2590.1,5849.3-2568.4,5754.5-2598z M5938.2-2971.3c0-65.2-4-69.1-69.1-69.1c-57.3,0-71.1,7.9-75,45.4c-11.9,79,9.9,106.7,79,98.8C5932.3-2902.2,5938.2-2908.1,5938.2-2971.3z"/></g></g>
</svg>