<?xml version="1.0" encoding="utf-8"?>
<!-- Svg Vector Icons : http://www.onlinewebfonts.com/icon -->
<!DOCTYPE svg PUBLIC "-//W3C//DTD SVG 1.1//EN" "http://www.w3.org/Graphics/SVG/1.1/DTD/svg11.dtd">
<svg version="1.1" xmlns="http://www.w3.org/2000/svg" xmlns:xlink="http://www.w3.org/1999/xlink" x="0px" y="0px" viewBox="0 0 1000 1000" enable-background="new 0 0 1000 1000" xml:space="preserve">
<metadata> Svg Vector Icons : http://www.onlinewebfonts.com/icon </metadata>
<g><g transform="translate(0.000000,511.000000) scale(0.100000,-0.100000)"><path d="M1364.5,110v-4900H5000h3635.5V110v4900H5000H1364.5V110z M1996.8,4435c0-146.2,9.9-296.4,23.7-341.8c31.6-108.7,215.4-292.4,324-324c112.6-33.6,1088.7-33.6,1201.3,0c108.7,31.6,292.4,215.4,324,324c13.8,45.4,23.7,195.6,23.7,341.8v258.8h2212.9h2212.9v-632.3v-632.3H5000H1680.6v632.3v632.3h158.1h158.1V4435z M2787.1,4535.8v-158.1h158.1h158.1v158.1v158.1h237.1h237.1v-276.6c0-387.3,57.3-355.6-632.3-355.6s-632.3-31.6-632.3,355.6v276.6H2550h237.1V4535.8z M8319.4-127.1v-3240.3H5000H1680.6v3240.3v3240.3H5000h3319.4V-127.1z M8319.4-4078.7v-395.2H5000H1680.6v395.2v395.2H5000h3319.4V-4078.7z"/><path d="M4703.6,4510.1c-98.8-31.6-282.5-221.3-312.2-322.1c-13.8-45.4-23.7-102.7-23.7-126.4c0-217.3,256.9-474.2,474.2-474.2c217.3,0,474.2,256.9,474.2,474.2c0,108.7-51.4,209.4-158.1,316.1C5011.9,4525.9,4877.5,4565.4,4703.6,4510.1z M4960.5,4180.2c25.7-25.7,39.5-65.2,39.5-118.5c0-104.7-53.3-158.1-158.1-158.1c-104.7,0-158.1,53.3-158.1,158.1c0,53.3,13.8,92.9,39.5,118.5c25.7,25.7,65.2,39.5,118.6,39.5C4895.3,4219.7,4934.8,4205.8,4960.5,4180.2z"/><path d="M5968.1,4510.1c-98.8-31.6-282.5-221.3-312.2-322.1c-13.8-45.4-23.7-102.7-23.7-126.4c0-217.3,256.9-474.2,474.2-474.2s474.2,256.9,474.2,474.2c0,108.7-51.4,209.4-158.1,316.1C6276.3,4525.9,6142,4565.4,5968.1,4510.1z M6225,4180.2c25.7-25.7,39.5-65.2,39.5-118.5c0-53.4-13.8-92.9-39.5-118.5c-25.7-25.7-65.2-39.5-118.6-39.5s-92.9,13.8-118.6,39.5c-25.7,25.7-39.5,65.2-39.5,118.5c0,53.3,13.8,92.9,39.5,118.5c25.7,25.7,65.2,39.5,118.6,39.5S6199.3,4205.8,6225,4180.2z"/><path d="M7054.8,4061.6v-158.1h158H7371v158.1v158.1h-158.1h-158V4061.6z"/><path d="M7687.1,4061.6v-158.1h158.1h158.1v158.1v158.1h-158.1h-158.1V4061.6z"/><path d="M4683.9,2777.3c-663.9-88.9-1207.2-355.6-1681.4-827.9c-418.9-420.9-663.9-871.3-792.3-1458.2c-55.3-264.7-59.3-762.6-7.9-1033.3c114.6-588.8,373.4-1074.9,802.2-1501.6c555.2-557.2,1227-839.7,1995.6-839.7c768.6,0,1440.4,282.5,1995.6,839.7c557.2,555.2,839.7,1227,839.7,1995.6s-282.5,1440.4-839.7,1995.6c-420.8,420.8-895,679.7-1462.1,792.3C5318.1,2783.3,4873.5,2803,4683.9,2777.3z M5523.6,2431.6c484.1-108.7,883.2-318.1,1223-642.1c381.3-365.5,620.4-794.3,737-1327.7c49.4-231.2,49.4-788.3,0-1019.5c-108.7-494-316.1-891.1-646.1-1236.9c-363.6-379.3-796.3-620.4-1327.8-737c-231.2-49.4-788.3-49.4-1019.5,0c-533.5,116.6-962.2,355.6-1327.7,737c-330,343.8-537.4,742.9-646.1,1236.9c-49.4,231.2-49.4,788.3,0,1019.5c171.9,786.4,650,1408.8,1347.5,1758.5c191.7,94.8,480.1,187.7,681.7,221.3c81,11.9,162,25.7,177.8,29.6C4798.5,2490.8,5397.1,2459.2,5523.6,2431.6z"/><path d="M4733.3,1829c-758.7-118.5-1394.9-711.3-1584.6-1474c-45.4-185.7-45.4-620.4,0-806.1c90.9-369.5,247-640.1,527.5-920.7c280.6-280.6,551.2-434.7,920.7-527.5c201.5-49.4,640.2-45.4,839.7,9.9c541.4,146.2,1011.6,515.7,1244.8,976.1c53.3,104.7,57.3,128.4,57.3,341.8v227.2h-221.3c-183.8,0-233.1,5.9-284.5,37.5c-166,100.8-167.9,414.9-4,515.7c55.3,33.6,98.8,39.5,288.5,39.5h221.3v227.2c0,207.5-4,237.1-51.4,331.9c-245,484.1-731.1,861.5-1276.4,991.9C5254.9,1836.9,4889.4,1852.7,4733.3,1829z M5300.3,1504.9c324-63.2,577-195.6,808.1-426.8C6258.6,928,6422.6,685,6422.6,609.9c0-33.6-15.8-41.5-87-49.4c-185.7-21.7-383.3-169.9-482.1-361.6c-73.1-142.3-73.1-353.7,0-495.9c100.8-191.7,341.8-363.6,513.7-363.6c43.5,0,55.3-9.9,55.3-43.5c0-77.1-162-318.1-314.2-470.2c-326-326-737-476.2-1213.1-448.5c-247,15.8-389.2,51.4-600.6,154.1c-310.2,148.2-567.1,405-715.2,715.2C3456.9-498.5,3431.2-378,3431.2-48.1c0,330,25.7,450.5,146.2,703.4C3883.7,1291.5,4591,1641.3,5300.3,1504.9z"/></g></g>
</svg>