<?xml version="1.0" encoding="utf-8"?>
<!-- Svg Vector Icons : http://www.onlinewebfonts.com/icon -->
<!DOCTYPE svg PUBLIC "-//W3C//DTD SVG 1.1//EN" "http://www.w3.org/Graphics/SVG/1.1/DTD/svg11.dtd">
<svg version="1.1" xmlns="http://www.w3.org/2000/svg" xmlns:xlink="http://www.w3.org/1999/xlink" x="0px" y="0px" viewBox="0 0 1000 1000" enable-background="new 0 0 1000 1000" xml:space="preserve">
<metadata> Svg Vector Icons : http://www.onlinewebfonts.com/icon </metadata>
<g><g transform="translate(0.000000,511.000000) scale(0.100000,-0.100000)"><path d="M4779.1,5059.7c-100.4-32.1-287.2-224.9-317.3-327.3c-18.1-64.3-24.1-897.7-24.1-3560.5v-3476.2h1124.6h1124.6V-2463v-158.7l-134.6-8c-158.6-10-255-50.2-353.4-150.6c-204.8-202.8-202.8-443.8,4-648.7c128.5-128.5,210.9-160.6,413.7-160.6c102.4,0,148.6-10,190.8-40.2c32.1-22.1,90.4-54.2,128.5-70.3l72.3-30.1v-218.9c0-257.1-30.1-361.5-134.6-467.9c-136.6-138.6-104.4-136.6-1552.3-136.6c-1468,0-1421.8-4-1564.4,150.6c-44.2,46.2-88.4,120.5-100.4,162.7c-14.1,54.2-22.1,763.1-22.1,2231.1V143.6l56.2,30.1c82.3,42.2,176.7,150.6,222.9,253c40.2,88.4,42.2,126.5,42.2,1437.9c0,835.4-8,1389.7-20.1,1455.9c-64.3,341.4-357.5,662.7-696.8,763.1c-84.3,24.1-86.3,26.1-86.3,112.5v86.3h-482h-482V3157.9V2033.3h401.6h401.6v-745c0-518.1,8-771.2,24.1-825.4c26.1-88.4,160.7-251,245-295.2l52.2-28.1l4-2193l6-2190.9l74.3-150.6c92.4-186.8,224.9-317.3,413.7-405.6l134.6-64.3h1375.6h1375.6l134.6,64.3c186.8,88.3,321.3,218.9,411.7,403.6c72.3,144.6,74.3,158.7,82.3,409.7l8,259l70.3,28.1c38.1,16.1,94.4,48.2,126.5,70.3c42.2,30.1,88.4,40.2,190.8,40.2c202.8,0,285.2,32.1,411.7,160.6c214.9,212.9,214.9,429.8,0,642.6c-122.5,122.5-210.9,160.6-379.6,160.6h-102.4v160.7v160.6h1124.6H9900v3476.2c0,2662.9-6,3496.3-24.1,3560.5c-32.1,110.4-218.9,297.2-329.3,329.3C9434.1,5093.8,4885.5,5091.8,4779.1,5059.7z M9538.5,4724.3c40.2-40.2,40.2-66.3,40.2-3373.8v-3333.6H9418h-160.7l-4,2094.6l-6,2094.6l-74.3,150.6c-92.4,186.8-224.9,317.3-413.7,405.7l-134.6,64.3H7168.8H5712.9l-134.6-64.3c-188.8-88.4-321.3-218.9-413.7-405.7l-74.3-150.6l-6-2094.6l-4-2094.6h-160.7H4759v3333.6c0,3307.5,0,3333.6,40.2,3373.8c40.2,40.2,66.3,40.2,2369.7,40.2C9472.3,4764.5,9498.4,4764.5,9538.5,4724.3z M2831.1,3157.9v-803.3h-160.7h-160.7v803.3v803.3h160.7h160.7V3157.9z M3359.3,3696.1c110.5-70.3,194.8-184.7,243-323.3c28.1-84.3,32.1-255,32.1-1480c0-1359.6,0-1385.7-40.2-1425.8c-54.2-54.2-186.8-54.2-241,0c-38.1,38.2-40.2,66.3-40.2,1066.4v1028.2l-80.3-14.1l-80.3-12.1v624.6v624.6l56.2-14.1C3238.8,3764.4,3307.1,3730.3,3359.3,3696.1z M8636.8,2485.2c48.2-18.1,122.5-64.3,162.7-104.4c142.6-140.6,136.6-22.1,136.6-2309.4v-2054.4H7168.8H5401.6V71.3c0,1411.8,6,2076.5,22.1,2130.7c28.1,100.4,166.7,247,269.1,283.2C5817.3,2529.4,8512.3,2529.4,8636.8,2485.2z M7329.5-2388.7v-86.3h-160.7h-160.6v86.3v84.3h160.6h160.7V-2388.7z M7305.4-2814.5c30.1-16.1,76.3-52.2,102.4-80.3c46.2-50.2,58.2-52.2,267.1-52.2c255,0,297.2-22.1,297.2-160.7c0-138.6-42.2-160.6-297.2-160.6c-208.9,0-220.9-2-267.1-52.2c-68.3-74.3-144.6-108.5-239-108.5c-94.4,0-170.7,34.1-239,108.5c-46.2,50.2-58.2,52.2-267.1,52.2c-255,0-297.2,22.1-297.2,160.6c0,138.6,42.2,160.7,297.2,160.7c198.8,0,222.9,4,257,42.2C7020.2-2792.4,7186.9-2752.2,7305.4-2814.5z"/><path d="M6204.9,3800.6v-160.7h642.6h642.6v160.7v160.7h-642.6h-642.6V3800.6z"/><path d="M7811.5,3800.6v-160.7h160.7h160.7v160.7v160.7h-160.7h-160.7V3800.6z"/><path d="M6950,2161.9c-471.9-126.5-807.3-616.5-731-1066.4c88.3-512.1,602.5-897.7,1084.4-815.3c510.1,88.4,897.7,602.5,815.3,1080.4C8024.3,1912.9,7460,2300.4,6950,2161.9z M7460,1812.4c124.5-60.3,230.9-166.7,293.2-293.2c40.2-82.3,48.2-128.5,48.2-289.2c0-218.9-42.2-333.4-170.7-461.9c-128.5-128.5-243-170.7-461.9-170.7c-218.9,0-333.3,42.2-461.9,170.7c-150.6,150.6-216.9,413.7-162.7,636.6c50.2,200.8,214.9,375.5,411.7,439.8C7084.5,1886.8,7339.6,1870.7,7460,1812.4z"/><path d="M7000.2-75.3c-230.9-58.2-451.8-245-560.3-477.9c-56.2-118.5-64.3-154.6-64.3-305.3c0-150.6,8-186.8,64.3-305.2c88.3-188.8,218.9-321.3,405.7-413.7c138.6-68.3,164.6-74.3,323.3-74.3c158.7,0,184.8,6,323.3,74.3c186.8,92.4,317.3,224.9,405.7,413.7c56.2,118.5,64.3,154.6,64.3,305.2c0,150.6-8,186.8-64.3,305.3c-132.5,281.2-395.6,469.9-678.8,488C7140.7-61.2,7044.3-65.2,7000.2-75.3z M7351.6-406.6c239-84.4,359.5-369.5,269.1-636.6c-106.4-307.2-554.2-399.6-797.3-162.7c-180.7,176.7-180.7,518.1,0,694.8C6954-384.5,7166.9-342.4,7351.6-406.6z"/><path d="M8293.4-537.1v-160.7h160.7h160.7v160.7v160.6h-160.7h-160.7V-537.1z"/><path d="M8293.4-1179.8v-160.6h160.7h160.7v160.6v160.7h-160.7h-160.7V-1179.8z"/><path d="M802.9,4854.9l-108.4-110.4l158.6-160.7c88.4-88.4,168.7-160.7,180.7-160.7c26.1,0,210.9,184.8,210.9,212.9c0,18.1-303.2,329.3-323.3,329.3C917.3,4965.3,863.1,4915.1,802.9,4854.9z"/><path d="M1525.8,4292.6l-108.4-110.4l168.7-170.7l168.7-170.7l116.5,114.5l116.5,114.5L1823,4236.3c-92.4,92.4-170.7,166.7-176.7,166.7S1586.1,4352.8,1525.8,4292.6z"/><path d="M292.8,4099.8c-28.1-66.3-52.2-132.5-52.2-146.6c0-22.1,371.5-192.8,417.7-192.8c22.1,0,126.5,269.1,108.4,283.2c-12.1,12.1-399.6,178.7-415.7,178.7C349,4222.3,322.9,4168.1,292.8,4099.8z"/><path d="M1218.6,3844.7c-18.1-40.2-44.2-106.4-62.3-146.6l-30.1-72.3l204.8-84.3c112.5-46.2,212.9-84.3,220.9-88.4c18.1-4,140.6,267.1,126.5,281.2c-4,6-104.4,48.2-218.9,96.4l-210.9,86.3L1218.6,3844.7z"/><path d="M100,3157.9v-160.7h241h241v160.7v160.7H341H100V3157.9z"/><path d="M1063.9,3157.9v-160.7h241h241v160.7v160.7h-241h-241V3157.9z"/><path d="M1347.1,2782.4c-116.5-48.2-212.9-90.4-214.9-92.4c-2-2,22.1-68.3,56.2-148.6l60.2-142.6l210.9,86.3c116.5,48.2,214.9,90.4,218.9,96.4c10,8-90.4,255-110.4,277.1C1562,2864.7,1461.6,2830.6,1347.1,2782.4z"/><path d="M437.4,2471.1c-110.4-46.2-196.8-92.4-196.8-108.4c0-24.1,92.4-247,108.4-263.1c6-8,397.6,152.6,417.7,172.7c20.1,18.1-88.4,283.2-114.5,283.2C642.2,2553.5,543.8,2517.3,437.4,2471.1z"/><path d="M1586.1,2304.4l-170.7-170.7l116.5-114.5l114.5-116.5l170.7,170.7l170.7,170.7l-116.5,116.5l-116.5,114.5L1586.1,2304.4z"/><path d="M853.1,1732.1l-160.7-160.7L808.9,1457l114.5-116.5l160.7,160.7c88.4,88.3,160.7,168.7,160.7,180.7c0,26.1-184.8,210.9-212.9,210.9C1021.8,1892.8,941.4,1820.5,853.1,1732.1z"/></g></g>
</svg>