<?xml version="1.0" encoding="utf-8"?>
<svg viewBox="0 0 500 257" xmlns="http://www.w3.org/2000/svg">
  <title>welcome_cats</title>
  <path d="M 406.475 62.8 C 358.285 25.657 291.244 24.138 242.333 60.33 C 216.48 79.462 196.434 108.732 200.082 153.299 C 201.371 169.062 204.957 181.994 210.192 192.581 C 231.39 235.498 318.457 233.846 323.293 233.839 C 326.425 233.836 329.558 233.907 332.691 234.05 C 343.663 234.553 354.579 235.933 365.333 238.176 C 380.663 241.372 400.181 242.978 417.619 236.926 C 420.582 235.902 423.461 234.651 426.23 233.181 C 435.814 228.088 446.541 223.221 452.814 211.142 C 457.526 202.077 460.961 190.709 462.613 176.551 C 468.627 124.988 438.573 87.542 406.475 62.8 Z" fill="#f2f2f2" style=""/>
  <ellipse cx="332.901" cy="234.666" rx="137.796" ry="12.934" fill="#3f3d56" style=""/>
  <ellipse cx="326.17" cy="234.666" rx="128.161" ry="6.071" opacity="0.1" style=""/>
  <polygon points="397.07 61.434 397.07 75.945 378.178 75.945 378.178 234.206 417.607 234.206 417.607 81.969 417.607 75.945 417.607 61.434 397.07 61.434" fill="#575a89" style=""/>
  <polygon points="293.024 158.908 293.024 133.992 268.929 133.992 268.929 158.908 259.894 158.908 259.894 234.479 301.785 234.479 301.785 158.908 293.024 158.908" fill="#575a89" style=""/>
  <rect x="264.548" y="199.431" width="32.583" height="35.321" fill="#3f3d56" style=""/>
  <rect x="264.548" y="199.431" width="5.203" height="35.321" opacity="0.1" style=""/>
  <polygon points="364.213 53.493 364.213 61.98 316.023 61.98 316.023 53.493 301.785 53.493 301.785 234.752 378.178 234.752 378.178 53.493 364.213 53.493" fill="#3f3d56" style=""/>
  <rect x="364.213" y="53.493" width="10.679" height="8.488" opacity="0.1" style=""/>
  <rect x="301.785" y="53.493" width="10.679" height="181.26" opacity="0.1" style=""/>
  <polygon points="247.298 105.243 247.298 98.397 240.179 98.397 240.179 105.243 227.31 105.243 227.31 234.752 259.894 234.752 259.894 105.243 247.298 105.243" fill="#3f3d56" style=""/>
  <rect x="240.179" y="98.397" width="3.833" height="6.844" opacity="0.1" style=""/>
  <rect x="227.31" y="105.243" width="3.833" height="129.51" opacity="0.1" style=""/>
  <rect x="364.213" y="123.314" width="10.679" height="111.439" opacity="0.1" style=""/>
  <rect x="250.037" y="105.243" width="9.857" height="23.82" opacity="0.1" style=""/>
  <rect x="313.56" y="76.493" width="15.333" height="6.571" fill="#ff6584" style=""/>
  <rect x="346.143" y="144.122" width="15.333" height="6.571" fill="#ff6584" style=""/>
  <rect x="313.56" y="191.492" width="15.333" height="6.571" fill="#ff6584" style=""/>
  <rect x="236.072" y="134.814" width="15.333" height="6.571" fill="#ff6584" style=""/>
  <rect x="273.31" y="203.266" width="15.333" height="6.571" fill="#ff6584" style=""/>
  <rect x="267.833" y="164.658" width="26.286" height="10.952" opacity="0.1" style=""/>
  <rect x="382.832" y="88.539" width="26.286" height="10.952" opacity="0.1" style=""/>
  <rect x="382.832" y="111.814" width="26.286" height="10.952" opacity="0.1" style=""/>
  <rect x="382.832" y="135.087" width="26.286" height="10.952" opacity="0.1" style=""/>
  <rect x="382.832" y="158.361" width="26.286" height="10.952" opacity="0.1" style=""/>
  <rect x="382.832" y="181.634" width="26.286" height="10.952" opacity="0.1" style=""/>
  <rect x="382.832" y="204.907" width="26.286" height="10.952" opacity="0.1" style=""/>
  <polygon points="426.641 138.099 426.641 108.255 407.475 108.255 407.475 138.099 400.63 138.099 400.63 234.752 433.212 234.752 433.212 138.099 426.641 138.099" fill="#3f3d56" style=""/>
  <rect x="407.475" y="108.255" width="6.023" height="29.846" opacity="0.1" style=""/>
  <rect x="400.63" y="138.099" width="6.023" height="96.654" opacity="0.1" style=""/>
  <rect x="417.059" y="186.562" width="16.154" height="9.583" opacity="0.1" style=""/>
  <rect x="417.607" y="172.325" width="15.333" height="6.571" fill="#ff6584" style=""/>
  <path d="M 480.931 178.959 C 480.931 203.352 466.429 211.87 448.54 211.87 C 430.652 211.87 416.15 203.352 416.15 178.959 C 416.15 154.566 448.54 123.533 448.54 123.533 C 448.54 123.533 480.931 154.566 480.931 178.959 Z" fill="#f1dcea" style=""/>
  <polygon points="447.36 208.138 447.692 187.723 461.498 162.467 447.744 184.521 447.894 175.341 457.408 157.068 447.933 172.911 447.933 172.911 448.201 156.402 458.39 141.854 448.242 153.807 448.41 123.533 447.358 163.609 447.444 161.955 437.086 146.1 447.277 165.129 446.312 183.568 446.285 183.079 434.342 166.392 446.248 184.807 446.127 187.114 446.105 187.148 446.115 187.337 443.667 234.118 446.939 234.118 447.331 209.954 459.209 191.585 447.36 208.138" fill="#3f3d56" style=""/>
  <path d="M 243.543 179.223 C 243.543 203.617 229.042 212.134 211.153 212.134 C 193.265 212.134 178.763 203.617 178.763 179.223 C 178.763 154.829 211.153 123.797 211.153 123.797 C 211.153 123.797 243.543 154.829 243.543 179.223 Z" fill="#f1dcea" style=""/>
  <polygon points="209.973 208.403 210.305 187.987 224.111 162.73 210.357 184.785 210.506 175.605 220.021 157.332 210.545 173.177 210.545 173.177 210.814 156.666 221.002 142.118 210.856 154.07 211.024 123.797 209.97 163.872 210.057 162.22 199.698 146.363 209.89 165.394 208.925 183.832 208.897 183.342 196.954 166.658 208.86 185.072 208.741 187.377 208.718 187.412 208.728 187.602 206.28 234.382 209.551 234.382 209.943 210.22 221.82 191.849 209.973 208.403" fill="#3f3d56" style=""/>
  <ellipse cx="97.351" cy="232.474" rx="77.303" ry="10.456" fill="#3f3d56" style=""/>
  <ellipse cx="97.351" cy="232.474" rx="60.498" ry="8.183" opacity="0.1" style=""/>
  <polygon points="105.63 224.628 111.204 224.628 113.857 203.125 105.63 203.125 105.63 224.628" fill="#ffb8b8" style=""/>
  <path d="M 104.435 223.034 L 121.955 223.034 C 121.955 223.034 121.955 223.034 121.955 223.034 L 121.955 229.804 C 121.955 229.804 121.955 229.804 121.955 229.804 L 111.204 229.804 C 107.465 229.804 104.435 226.773 104.435 223.034 L 104.435 223.034 C 104.435 223.034 104.435 223.034 104.435 223.034 Z" fill="#2f2e41" style="" transform="matrix(-1, 0.000046, -0.000046, -1, 226.400415, 452.83279)"/>
  <polygon points="75.971 223.555 81.496 224.293 86.967 203.329 78.812 202.242 75.971 223.555" fill="#ffb8b8" style=""/>
  <path d="M 74.473 222.948 L 91.993 222.948 C 91.993 222.948 91.993 222.948 91.993 222.948 L 91.993 229.717 C 91.993 229.717 91.993 229.717 91.993 229.717 L 81.243 229.717 C 77.504 229.717 74.473 226.686 74.473 222.948 L 74.473 222.948 C 74.473 222.948 74.473 222.948 74.473 222.948 Z" fill="#2f2e41" style="" transform="matrix(-0.991228, -0.132161, 0.132161, -0.991228, 135.823557, 461.679823)"/>
  <polygon points="83.89 135.822 115.265 137.186 113.9 216.761 105.716 215.851 99.351 161.74 84.345 219.489 76.159 218.124 83.89 135.822" fill="#2f2e41" style=""/>
  <path d="M 104.805 88.531 L 93.894 86.302 L 87.073 136.277 C 87.073 136.277 107.08 149.463 113.446 135.822 Z" fill="#f1dcea" style=""/>
  <circle cx="100.047" cy="71.494" r="11.168" fill="#ffb8b8" style=""/>
  <path d="M 93.894 85.805 L 77.98 90.806 C 77.98 90.806 85.708 129.456 72.976 149.463 C 72.976 149.463 88.892 166.287 95.713 128.548 C 95.713 128.548 101.169 98.082 93.894 85.805 Z" fill="#2f2e41" style=""/>
  <path d="M 104.805 88.531 L 116.629 95.807 C 116.629 95.807 122.995 149.008 116.629 154.01 C 110.263 159.012 104.805 88.531 104.805 88.531 Z" fill="#2f2e41" style=""/>
  <path d="M 114.806 158.615 C 112.742 156.654 112.953 153.304 115.246 151.619 L 110.44 136.096 L 118.548 138.452 L 121.869 152.83 C 123.774 155.813 121.734 159.738 118.198 159.895 C 116.939 159.953 115.713 159.489 114.806 158.615 Z" fill="#ffb8b8" style=""/>
  <path d="M 80.701 157.236 C 78.402 155.555 78.184 152.206 80.241 150.24 L 73.488 135.461 L 81.832 136.759 L 86.965 150.594 C 89.236 153.309 87.716 157.464 84.23 158.073 C 82.989 158.289 81.712 157.986 80.701 157.236 Z" fill="#ffb8b8" style=""/>
  <polygon points="82.071 91.26 77.98 90.806 67.521 124.909 77.98 148.555 86.163 143.553 77.069 124 84.345 103.084 82.071 91.26" fill="#2f2e41" style=""/>
  <polygon points="107.617 92.243 109.891 92.698 120.803 145.899 113.527 148.173 104.889 116.797 107.617 92.243" fill="#2f2e41" style=""/>
  <path d="M 92.373 76.082 C 92.679 73.849 94.137 71.942 96.212 71.062 C 98.361 70.182 100.787 70.553 103.104 70.722 C 105.42 70.891 108 70.744 109.673 69.132 C 111.201 67.657 111.545 65.213 110.806 63.222 C 110.069 61.231 108.398 59.686 106.5 58.736 C 104.567 57.849 102.494 57.302 100.375 57.117 C 97.278 56.744 94.099 56.695 91.08 57.483 C 88.061 58.271 88.84 59.957 87.072 62.528 C 85.302 65.098 84.772 68.598 86.121 71.411 C 87.024 73.294 88.641 74.719 90.215 76.089" fill="#2f2e41" style=""/>
  <polygon points="105.63 224.628 111.204 224.628 113.857 203.125 105.63 203.125 105.63 224.628" fill="#ffb8b8" style=""/>
  <path d="M 104.435 223.034 L 121.955 223.034 C 121.955 223.034 121.955 223.034 121.955 223.034 L 121.955 229.804 C 121.955 229.804 121.955 229.804 121.955 229.804 L 111.204 229.804 C 107.465 229.804 104.435 226.773 104.435 223.034 L 104.435 223.034 C 104.435 223.034 104.435 223.034 104.435 223.034 Z" fill="#2f2e41" style="" transform="matrix(-1, 0.000046, -0.000046, -1, 226.400415, 452.83279)"/>
  <polygon points="75.971 223.555 81.496 224.293 86.967 203.329 78.812 202.242 75.971 223.555" fill="#ffb8b8" style=""/>
  <path d="M 74.473 222.948 L 91.993 222.948 C 91.993 222.948 91.993 222.948 91.993 222.948 L 91.993 229.717 C 91.993 229.717 91.993 229.717 91.993 229.717 L 81.243 229.717 C 77.504 229.717 74.473 226.686 74.473 222.948 L 74.473 222.948 C 74.473 222.948 74.473 222.948 74.473 222.948 Z" fill="#2f2e41" style="" transform="matrix(-0.991228, -0.132161, 0.132161, -0.991228, 135.823557, 461.679823)"/>
  <polygon points="83.89 135.822 115.265 137.186 113.9 216.761 105.716 215.851 99.351 161.74 84.345 219.489 76.159 218.124 83.89 135.822" fill="#2f2e41" style=""/>
  <path d="M 104.805 88.531 L 93.894 86.302 L 87.073 136.277 C 87.073 136.277 107.08 149.463 113.446 135.822 Z" fill="#f1dcea" style=""/>
  <circle cx="100.047" cy="71.494" r="11.168" fill="#ffb8b8" style=""/>
  <path d="M 93.894 85.805 L 77.98 90.806 C 77.98 90.806 85.708 129.456 72.976 149.463 C 72.976 149.463 88.892 166.287 95.713 128.548 C 95.713 128.548 101.169 98.082 93.894 85.805 Z" fill="#2f2e41" style=""/>
  <path d="M 104.805 88.531 L 116.629 95.807 C 116.629 95.807 122.995 149.008 116.629 154.01 C 110.263 159.012 104.805 88.531 104.805 88.531 Z" fill="#2f2e41" style=""/>
  <path d="M 114.806 158.615 C 112.742 156.654 112.953 153.304 115.246 151.619 L 110.44 136.096 L 118.548 138.452 L 121.869 152.83 C 123.774 155.813 121.734 159.738 118.198 159.895 C 116.939 159.953 115.713 159.489 114.806 158.615 Z" fill="#ffb8b8" style=""/>
  <path d="M 80.701 157.236 C 78.402 155.555 78.184 152.206 80.241 150.24 L 73.488 135.461 L 81.832 136.759 L 86.965 150.594 C 89.236 153.309 87.716 157.464 84.23 158.073 C 82.989 158.289 81.712 157.986 80.701 157.236 Z" fill="#ffb8b8" style=""/>
  <polygon points="82.071 91.26 77.98 90.806 67.521 124.909 77.98 148.555 86.163 143.553 77.069 124 84.345 103.084 82.071 91.26" fill="#2f2e41" style=""/>
  <polygon points="107.617 92.243 109.891 92.698 120.803 145.899 113.527 148.173 104.889 116.797 107.617 92.243" fill="#2f2e41" style=""/>
  <path d="M 92.373 76.082 C 92.679 73.849 94.137 71.942 96.212 71.062 C 98.361 70.182 100.787 70.553 103.104 70.722 C 105.42 70.891 108 70.744 109.673 69.132 C 111.201 67.657 111.545 65.213 110.806 63.222 C 110.069 61.231 108.398 59.686 106.5 58.736 C 104.567 57.849 102.494 57.302 100.375 57.117 C 97.278 56.744 94.099 56.695 91.08 57.483 C 88.061 58.271 88.84 59.957 87.072 62.528 C 85.302 65.098 84.772 68.598 86.121 71.411 C 87.024 73.294 88.641 74.719 90.215 76.089" fill="#2f2e41" style=""/>
  <polygon points="154.211 18.176 154.211 15.945 143.059 15.945 143.059 16.084 143.059 18.176 143.059 36.159 143.059 38.388 145.289 38.388 154.211 38.388 154.211 36.159 145.289 36.159 145.289 18.176 154.211 18.176" fill="#3f3d56" style=""/>
  <path d="M 159.647 15.945 L 159.647 38.388 L 170.799 38.388 L 170.799 15.945 Z M 168.57 36.157 L 161.878 36.157 L 161.878 18.176 L 168.57 18.176 Z" fill="#f1dcea" style=""/>
  <polygon points="128.7 36.159 128.7 16.084 126.47 16.084 126.47 36.159 126.47 38.388 128.7 38.388 137.622 38.388 137.622 36.159 128.7 36.159" fill="#f1dcea" style=""/>
  <polygon points="121.451 18.176 121.451 15.945 110.299 15.945 110.299 16.084 110.299 18.176 110.299 25.982 110.299 28.213 110.299 36.159 110.299 38.388 112.53 38.388 121.451 38.388 121.451 36.159 112.53 36.159 112.53 28.213 121.451 28.213 121.451 25.982 112.53 25.982 112.53 18.176 121.451 18.176" fill="#3f3d56" style=""/>
  <polygon points="208.718 18.176 208.718 15.945 197.564 15.945 197.564 16.084 197.564 18.176 197.564 25.982 197.564 28.213 197.564 36.159 197.564 38.388 199.795 38.388 208.718 38.388 208.718 36.159 199.795 36.159 199.795 28.213 208.718 28.213 208.718 25.982 199.795 25.982 199.795 18.176 208.718 18.176" fill="#f1dcea" style=""/>
  <polygon points="102.771 16.084 102.771 34.518 96.891 28.637 96.877 28.651 96.865 28.639 90.853 34.651 90.853 16.015 88.623 16.015 88.623 38.319 90.853 38.319 90.853 37.804 96.878 31.78 102.771 37.673 102.771 38.388 105.002 38.388 105.002 16.084 102.771 16.084" fill="#3f3d56" style=""/>
  <polygon points="190.176 16.084 190.176 16.599 184.151 22.623 178.258 16.731 178.258 16.015 176.027 16.015 176.027 38.319 178.258 38.319 178.258 19.886 184.139 25.765 184.152 25.753 184.164 25.764 190.176 19.753 190.176 38.388 192.407 38.388 192.407 16.084 190.176 16.084" fill="#3f3d56" style=""/>
</svg>